Hubballi-Regular-z.ufo
<glyph name="numbersign" format="1">
  <advance width="606"/>
  <unicode hex="0023"/>
  <outline>
    <contour>
      <point x="509" y="508" type="curve" smooth="yes"/>
      <point x="333" y="24" type="line" smooth="yes"/>
      <point x="329" y="12"/>
      <point x="314" y="5"/>
      <point x="301" y="10" type="curve" smooth="yes"/>
      <point x="289" y="14"/>
      <point x="282" y="29"/>
      <point x="287" y="42" type="curve" smooth="yes"/>
      <point x="463" y="526" type="line" smooth="yes"/>
      <point x="467" y="538"/>
      <point x="482" y="545"/>
      <point x="495" y="540" type="curve" smooth="yes"/>
      <point x="507" y="536"/>
      <point x="514" y="521"/>
    </contour>
    <contour>
      <point x="309" y="508" type="curve" smooth="yes"/>
      <point x="133" y="24" type="line" smooth="yes"/>
      <point x="129" y="12"/>
      <point x="114" y="5"/>
      <point x="101" y="10" type="curve" smooth="yes"/>
      <point x="89" y="14"/>
      <point x="82" y="29"/>
      <point x="87" y="42" type="curve" smooth="yes"/>
      <point x="263" y="526" type="line" smooth="yes"/>
      <point x="267" y="538"/>
      <point x="282" y="545"/>
      <point x="295" y="540" type="curve" smooth="yes"/>
      <point x="307" y="536"/>
      <point x="314" y="521"/>
    </contour>
    <contour>
      <point x="537" y="363" type="curve" smooth="yes"/>
      <point x="133" y="363" type="line" smooth="yes"/>
      <point x="120" y="363"/>
      <point x="108" y="375"/>
      <point x="108" y="388" type="curve" smooth="yes"/>
      <point x="108" y="402"/>
      <point x="120" y="413"/>
      <point x="133" y="413" type="curve" smooth="yes"/>
      <point x="537" y="413" type="line" smooth="yes"/>
      <point x="551" y="413"/>
      <point x="562" y="402"/>
      <point x="562" y="388" type="curve" smooth="yes"/>
      <point x="562" y="375"/>
      <point x="551" y="363"/>
    </contour>
    <contour>
      <point x="468" y="163" type="curve" smooth="yes"/>
      <point x="64" y="163" type="line" smooth="yes"/>
      <point x="50" y="163"/>
      <point x="39" y="175"/>
      <point x="39" y="188" type="curve" smooth="yes"/>
      <point x="39" y="202"/>
      <point x="51" y="213"/>
      <point x="64" y="213" type="curve" smooth="yes"/>
      <point x="468" y="213" type="line" smooth="yes"/>
      <point x="482" y="213"/>
      <point x="493" y="202"/>
      <point x="493" y="188" type="curve" smooth="yes"/>
      <point x="493" y="175"/>
      <point x="482" y="163"/>
    </contour>
  </outline>
</glyph>
<glyph name="percent" format="1">
  <advance width="824"/>
  <unicode hex="0025"/>
  <outline>
    <contour>
      <point x="208" y="550" type="curve" smooth="yes"/>
      <point x="279" y="550"/>
      <point x="341" y="486"/>
      <point x="341" y="389" type="curve" smooth="yes"/>
      <point x="341" y="298"/>
      <point x="290" y="228"/>
      <point x="208" y="228" type="curve" smooth="yes"/>
      <point x="133" y="228"/>
      <point x="74" y="298"/>
      <point x="74" y="388" type="curve" smooth="yes"/>
      <point x="74" y="486"/>
      <point x="132" y="550"/>
    </contour>
    <contour>
      <point x="617" y="320" type="curve" smooth="yes"/>
      <point x="688" y="320"/>
      <point x="750" y="256"/>
      <point x="750" y="159" type="curve" smooth="yes"/>
      <point x="750" y="68"/>
      <point x="699" y="-2"/>
      <point x="617" y="-2" type="curve" smooth="yes"/>
      <point x="542" y="-2"/>
      <point x="483" y="68"/>
      <point x="483" y="158" type="curve" smooth="yes"/>
      <point x="483" y="256"/>
      <point x="541" y="320"/>
    </contour>
    <contour>
      <point x="577" y="505" type="curve" smooth="yes"/>
      <point x="294" y="20" type="line" smooth="yes"/>
      <point x="287" y="9"/>
      <point x="271" y="5"/>
      <point x="259" y="11" type="curve" smooth="yes"/>
      <point x="248" y="18"/>
      <point x="244" y="34"/>
      <point x="250" y="46" type="curve" smooth="yes"/>
      <point x="533" y="531" type="line" smooth="yes"/>
      <point x="540" y="542"/>
      <point x="556" y="546"/>
      <point x="568" y="540" type="curve" smooth="yes"/>
      <point x="579" y="533"/>
      <point x="583" y="517"/>
    </contour>
    <contour>
      <point x="208" y="500" type="curve" smooth="yes"/>
      <point x="156" y="500"/>
      <point x="124" y="450"/>
      <point x="124" y="388" type="curve" smooth="yes"/>
      <point x="124" y="332"/>
      <point x="157" y="278"/>
      <point x="208" y="278" type="curve" smooth="yes"/>
      <point x="264" y="278"/>
      <point x="291" y="332"/>
      <point x="291" y="389" type="curve" smooth="yes"/>
      <point x="291" y="450"/>
      <point x="257" y="500"/>
    </contour>
    <contour>
      <point x="617" y="270" type="curve" smooth="yes"/>
      <point x="565" y="270"/>
      <point x="533" y="220"/>
      <point x="533" y="158" type="curve" smooth="yes"/>
      <point x="533" y="102"/>
      <point x="566" y="48"/>
      <point x="617" y="48" type="curve" smooth="yes"/>
      <point x="673" y="48"/>
      <point x="700" y="102"/>
      <point x="700" y="159" type="curve" smooth="yes"/>
      <point x="700" y="220"/>
      <point x="666" y="270"/>
    </contour>
  </outline>
</glyph>
<glyph name="zero" format="1">
  <advance width="576"/>
  <unicode hex="0030"/>
  <outline>
    <contour>
      <point x="289" y="551" type="curve" smooth="yes"/>
      <point x="409" y="551"/>
      <point x="511" y="440"/>
      <point x="511" y="277" type="curve" smooth="yes"/>
      <point x="511" y="123"/>
      <point x="428" y="0"/>
      <point x="289" y="0" type="curve" smooth="yes"/>
      <point x="161" y="0"/>
      <point x="64" y="123"/>
      <point x="64" y="275" type="curve"/>
      <point x="64" y="440"/>
      <point x="159" y="551"/>
    </contour>
    <contour>
      <point x="289" y="501" type="curve" smooth="yes"/>
      <point x="183" y="501"/>
      <point x="114" y="404"/>
      <point x="114" y="275" type="curve" smooth="yes"/>
      <point x="114" y="157"/>
      <point x="185" y="50"/>
      <point x="289" y="50" type="curve" smooth="yes"/>
      <point x="403" y="50"/>
      <point x="461" y="157"/>
      <point x="461" y="277" type="curve" smooth="yes"/>
      <point x="461" y="404"/>
      <point x="387" y="501"/>
    </contour>
  </outline>
</glyph>
<glyph name="one" format="1">
  <advance width="338.0"/>
  <unicode hex="0031"/>
  <outline>
    <contour>
      <point x="235" y="511" type="curve" smooth="yes"/>
      <point x="235" y="33" type="line" smooth="yes"/>
      <point x="235" y="19"/>
      <point x="224" y="8"/>
      <point x="210" y="8" type="curve" smooth="yes"/>
      <point x="197" y="8"/>
      <point x="185" y="20"/>
      <point x="185" y="33" type="curve" smooth="yes"/>
      <point x="185" y="511" type="line" smooth="yes"/>
      <point x="185" y="525"/>
      <point x="197" y="536"/>
      <point x="210" y="536" type="curve" smooth="yes"/>
      <point x="224" y="536"/>
      <point x="235" y="525"/>
    </contour>
    <contour>
      <point x="222" y="496" type="curve" smooth="yes"/>
      <point x="92" y="425" type="line" smooth="yes"/>
      <point x="80" y="419"/>
      <point x="65" y="423"/>
      <point x="58" y="435" type="curve" smooth="yes"/>
      <point x="52" y="447"/>
      <point x="56" y="462"/>
      <point x="68" y="469" type="curve" smooth="yes"/>
      <point x="198" y="540" type="line" smooth="yes"/>
      <point x="210" y="546"/>
      <point x="225" y="542"/>
      <point x="232" y="530" type="curve" smooth="yes"/>
      <point x="238" y="518"/>
      <point x="234" y="503"/>
    </contour>
  </outline>
</glyph>
<glyph name="G" format="1">
  <advance width="618"/>
  <unicode hex="0047"/>
  <outline>
    <contour>
      <point x="472" y="477" type="curve" smooth="yes"/>
      <point x="433" y="492"/>
      <point x="388" y="502"/>
      <point x="335" y="502" type="curve" smooth="yes"/>
      <point x="205" y="502"/>
      <point x="111" y="410"/>
      <point x="111" y="272" type="curve" smooth="yes"/>
      <point x="111" y="148"/>
      <point x="192" y="49"/>
      <point x="332" y="49" type="curve" smooth="yes"/>
      <point x="403" y="49"/>
      <point x="455" y="67"/>
      <point x="498" y="94" type="curve" smooth="yes"/>
      <point x="509" y="101"/>
      <point x="525" y="98"/>
      <point x="532" y="86" type="curve" smooth="yes"/>
      <point x="539" y="75"/>
      <point x="536" y="59"/>
      <point x="524" y="52" type="curve" smooth="yes"/>
      <point x="475" y="21"/>
      <point x="415" y="-1"/>
      <point x="332" y="-1" type="curve" smooth="yes"/>
      <point x="160" y="-1"/>
      <point x="61" y="120"/>
      <point x="61" y="272" type="curve"/>
      <point x="61" y="440"/>
      <point x="177" y="552"/>
      <point x="335" y="552" type="curve" smooth="yes"/>
      <point x="394" y="552"/>
      <point x="445" y="540"/>
      <point x="490" y="523" type="curve" smooth="yes"/>
      <point x="503" y="519"/>
      <point x="509" y="504"/>
      <point x="504" y="491" type="curve" smooth="yes"/>
      <point x="500" y="478"/>
      <point x="485" y="472"/>
    </contour>
    <contour>
      <point x="487" y="83" type="curve" smooth="yes"/>
      <point x="487" y="257" type="line" smooth="yes"/>
      <point x="487" y="271"/>
      <point x="499" y="282"/>
      <point x="512" y="282" type="curve" smooth="yes"/>
      <point x="526" y="282"/>
      <point x="537" y="271"/>
      <point x="537" y="257" type="curve" smooth="yes"/>
      <point x="537" y="83" type="line" smooth="yes"/>
      <point x="537" y="70"/>
      <point x="526" y="58"/>
      <point x="512" y="58" type="curve" smooth="yes"/>
      <point x="499" y="58"/>
      <point x="487" y="70"/>
    </contour>
    <contour>
      <point x="501" y="232" type="curve" smooth="yes"/>
      <point x="348" y="232" type="line" smooth="yes"/>
      <point x="335" y="232"/>
      <point x="323" y="244"/>
      <point x="323" y="257" type="curve" smooth="yes"/>
      <point x="323" y="271"/>
      <point x="335" y="282"/>
      <point x="348" y="282" type="curve" smooth="yes"/>
      <point x="501" y="282" type="line" smooth="yes"/>
      <point x="515" y="282"/>
      <point x="526" y="271"/>
      <point x="526" y="257" type="curve" smooth="yes"/>
      <point x="526" y="244"/>
      <point x="515" y="232"/>
    </contour>
  </outline>
</glyph>
<glyph name="H" format="1">
  <advance width="641"/>
  <unicode hex="0048"/>
  <outline>
    <contour>
      <point x="153" y="518" type="curve" smooth="yes"/>
      <point x="153" y="33" type="line" smooth="yes"/>
      <point x="153" y="19"/>
      <point x="142" y="8"/>
      <point x="128" y="8" type="curve" smooth="yes"/>
      <point x="115" y="8"/>
      <point x="103" y="20"/>
      <point x="103" y="33" type="curve" smooth="yes"/>
      <point x="103" y="518" type="line" smooth="yes"/>
      <point x="103" y="532"/>
      <point x="115" y="543"/>
      <point x="128" y="543" type="curve" smooth="yes"/>
      <point x="142" y="543"/>
      <point x="153" y="532"/>
    </contour>
    <contour>
      <point x="538" y="518" type="curve" smooth="yes"/>
      <point x="538" y="33" type="line" smooth="yes"/>
      <point x="538" y="19"/>
      <point x="527" y="8"/>
      <point x="513" y="8" type="curve" smooth="yes"/>
      <point x="500" y="8"/>
      <point x="488" y="20"/>
      <point x="488" y="33" type="curve" smooth="yes"/>
      <point x="488" y="518" type="line" smooth="yes"/>
      <point x="488" y="532"/>
      <point x="500" y="543"/>
      <point x="513" y="543" type="curve" smooth="yes"/>
      <point x="527" y="543"/>
      <point x="538" y="532"/>
    </contour>
    <contour>
      <point x="132" y="318" type="curve" smooth="yes"/>
      <point x="512" y="318" type="line" smooth="yes"/>
      <point x="526" y="318"/>
      <point x="537" y="307"/>
      <point x="537" y="293" type="curve" smooth="yes"/>
      <point x="537" y="280"/>
      <point x="526" y="268"/>
      <point x="512" y="268" type="curve" smooth="yes"/>
      <point x="132" y="268" type="line" smooth="yes"/>
      <point x="119" y="268"/>
      <point x="107" y="280"/>
      <point x="107" y="293" type="curve" smooth="yes"/>
      <point x="107" y="307"/>
      <point x="119" y="318"/>
    </contour>
  </outline>
</glyph>
<glyph name="N" format="1">
  <advance width="645"/>
  <unicode hex="004E"/>
  <outline>
    <contour>
      <point x="153" y="518" type="curve" smooth="yes"/>
      <point x="153" y="33" type="line" smooth="yes"/>
      <point x="153" y="19"/>
      <point x="142" y="8"/>
      <point x="128" y="8" type="curve" smooth="yes"/>
      <point x="115" y="8"/>
      <point x="103" y="20"/>
      <point x="103" y="33" type="curve" smooth="yes"/>
      <point x="103" y="518" type="line" smooth="yes"/>
      <point x="103" y="532"/>
      <point x="115" y="543"/>
      <point x="128" y="543" type="curve" smooth="yes"/>
      <point x="142" y="543"/>
      <point x="153" y="532"/>
    </contour>
    <contour>
      <point x="542" y="518" type="curve" smooth="yes"/>
      <point x="542" y="33" type="line" smooth="yes"/>
      <point x="542" y="19"/>
      <point x="531" y="8"/>
      <point x="517" y="8" type="curve" smooth="yes"/>
      <point x="504" y="8"/>
      <point x="492" y="20"/>
      <point x="492" y="33" type="curve" smooth="yes"/>
      <point x="492" y="518" type="line" smooth="yes"/>
      <point x="492" y="532"/>
      <point x="504" y="543"/>
      <point x="517" y="543" type="curve" smooth="yes"/>
      <point x="531" y="543"/>
      <point x="542" y="532"/>
    </contour>
    <contour>
      <point x="154" y="533" type="curve" smooth="yes"/>
      <point x="229" y="433"/>
      <point x="424" y="191"/>
      <point x="531" y="48" type="curve" smooth="yes"/>
      <point x="539" y="37"/>
      <point x="537" y="21"/>
      <point x="526" y="13" type="curve" smooth="yes"/>
      <point x="515" y="5"/>
      <point x="499" y="7"/>
      <point x="491" y="18" type="curve" smooth="yes"/>
      <point x="384" y="161"/>
      <point x="189" y="403"/>
      <point x="114" y="503" type="curve" smooth="yes"/>
      <point x="106" y="514"/>
      <point x="108" y="530"/>
      <point x="119" y="538" type="curve" smooth="yes"/>
      <point x="130" y="546"/>
      <point x="146" y="544"/>
    </contour>
  </outline>
</glyph>
<glyph name="P" format="1">
  <advance width="520"/>
  <unicode hex="0050"/>
  <outline>
    <contour>
      <point x="154" y="234" type="curve" smooth="yes"/>
      <point x="271" y="234" type="line" smooth="yes"/>
      <point x="366" y="234"/>
      <point x="417" y="291"/>
      <point x="417" y="364" type="curve" smooth="yes"/>
      <point x="417" y="441"/>
      <point x="356" y="493"/>
      <point x="271" y="493" type="curve" smooth="yes"/>
      <point x="128" y="493" type="line"/>
      <point x="153" y="518" type="line"/>
      <point x="153" y="33" type="line" smooth="yes"/>
      <point x="153" y="19"/>
      <point x="142" y="8"/>
      <point x="128" y="8" type="curve" smooth="yes"/>
      <point x="115" y="8"/>
      <point x="103" y="20"/>
      <point x="103" y="33" type="curve" smooth="yes"/>
      <point x="103" y="518" type="line" smooth="yes"/>
      <point x="103" y="532"/>
      <point x="114" y="543"/>
      <point x="128" y="543" type="curve" smooth="yes"/>
      <point x="271" y="543" type="line" smooth="yes"/>
      <point x="388" y="543"/>
      <point x="467" y="467"/>
      <point x="467" y="364" type="curve" smooth="yes"/>
      <point x="467" y="267"/>
      <point x="402" y="184"/>
      <point x="271" y="184" type="curve" smooth="yes"/>
      <point x="154" y="184" type="line" smooth="yes"/>
      <point x="141" y="184"/>
      <point x="129" y="196"/>
      <point x="129" y="209" type="curve" smooth="yes"/>
      <point x="129" y="223"/>
      <point x="141" y="234"/>
    </contour>
  </outline>
</glyph>
<glyph name="asciicircum" format="1">
  <advance width="500"/>
  <unicode hex="005E"/>
  <outline>
    <contour>
      <point x="268" y="514" type="curve" smooth="yes"/>
      <point x="220" y="422"/>
      <point x="169" y="328"/>
      <point x="128" y="248" type="curve" smooth="yes"/>
      <point x="122" y="236"/>
      <point x="107" y="231"/>
      <point x="95" y="237" type="curve" smooth="yes"/>
      <point x="83" y="243"/>
      <point x="78" y="258"/>
      <point x="84" y="270" type="curve" smooth="yes"/>
      <point x="125" y="350"/>
      <point x="176" y="446"/>
      <point x="224" y="538" type="curve" smooth="yes"/>
      <point x="230" y="550"/>
      <point x="246" y="554"/>
      <point x="258" y="548" type="curve" smooth="yes"/>
      <point x="270" y="542"/>
      <point x="274" y="526"/>
    </contour>
    <contour>
      <point x="373" y="248" type="curve" smooth="yes"/>
      <point x="332" y="327"/>
      <point x="283" y="422"/>
      <point x="233" y="514" type="curve" smooth="yes"/>
      <point x="227" y="526"/>
      <point x="231" y="542"/>
      <point x="243" y="548" type="curve" smooth="yes"/>
      <point x="255" y="554"/>
      <point x="271" y="550"/>
      <point x="277" y="538" type="curve" smooth="yes"/>
      <point x="327" y="446"/>
      <point x="376" y="351"/>
      <point x="417" y="270" type="curve" smooth="yes"/>
      <point x="423" y="258"/>
      <point x="418" y="243"/>
      <point x="406" y="237" type="curve" smooth="yes"/>
      <point x="394" y="231"/>
      <point x="379" y="236"/>
    </contour>
  </outline>
</glyph>
<glyph name="underscore" format="1">
  <advance width="505"/>
  <unicode hex="005F"/>
  <outline>
    <contour>
      <point x="45" y="-66" type="curve" smooth="yes"/>
      <point x="460" y="-66" type="line" smooth="yes"/>
      <point x="474" y="-66"/>
      <point x="485" y="-78"/>
      <point x="485" y="-91" type="curve" smooth="yes"/>
      <point x="485" y="-105"/>
      <point x="474" y="-116"/>
      <point x="460" y="-116" type="curve" smooth="yes"/>
      <point x="45" y="-116" type="line" smooth="yes"/>
      <point x="32" y="-116"/>
      <point x="20" y="-105"/>
      <point x="20" y="-91" type="curve" smooth="yes"/>
      <point x="20" y="-78"/>
      <point x="32" y="-66"/>
    </contour>
  </outline>
</glyph>
<glyph name="f" format="1">
  <advance width="328"/>
  <unicode hex="0066"/>
  <outline>
    <contour>
      <point x="276" y="545" type="curve" smooth="yes"/>
      <point x="194" y="540"/>
      <point x="164" y="506"/>
      <point x="164" y="448" type="curve" smooth="yes"/>
      <point x="164" y="33" type="line" smooth="yes"/>
      <point x="164" y="19"/>
      <point x="153" y="8"/>
      <point x="139" y="8" type="curve" smooth="yes"/>
      <point x="126" y="8"/>
      <point x="114" y="20"/>
      <point x="114" y="33" type="curve" smooth="yes"/>
      <point x="114" y="448" type="line" smooth="yes"/>
      <point x="114" y="530"/>
      <point x="148" y="588"/>
      <point x="274" y="595" type="curve" smooth="yes"/>
      <point x="287" y="596"/>
      <point x="299" y="585"/>
      <point x="300" y="571" type="curve" smooth="yes"/>
      <point x="301" y="558"/>
      <point x="290" y="546"/>
    </contour>
    <contour>
      <point x="51" y="400" type="curve" smooth="yes"/>
      <point x="277" y="400" type="line" smooth="yes"/>
      <point x="291" y="400"/>
      <point x="302" y="389"/>
      <point x="302" y="375" type="curve" smooth="yes"/>
      <point x="302" y="362"/>
      <point x="291" y="350"/>
      <point x="277" y="350" type="curve" smooth="yes"/>
      <point x="51" y="350" type="line" smooth="yes"/>
      <point x="38" y="350"/>
      <point x="26" y="362"/>
      <point x="26" y="375" type="curve" smooth="yes"/>
      <point x="26" y="389"/>
      <point x="38" y="400"/>
    </contour>
  </outline>
</glyph>
<glyph name="s" format="1">
  <advance width="460"/>
  <unicode hex="0073"/>
  <outline>
    <contour>
      <point x="334" y="339" type="curve" smooth="yes"/>
      <point x="307" y="346"/>
      <point x="271" y="353"/>
      <point x="232" y="353" type="curve" smooth="yes"/>
      <point x="167" y="353"/>
      <point x="129" y="327"/>
      <point x="129" y="294" type="curve" smooth="yes"/>
      <point x="129" y="264"/>
      <point x="165" y="246"/>
      <point x="226" y="240" type="curve" smooth="yes"/>
      <point x="266" y="236" type="line" smooth="yes"/>
      <point x="366" y="226"/>
      <point x="399" y="172"/>
      <point x="399" y="119" type="curve" smooth="yes"/>
      <point x="399" y="65"/>
      <point x="365" y="4"/>
      <point x="238" y="4" type="curve" smooth="yes"/>
      <point x="188" y="4"/>
      <point x="135" y="14"/>
      <point x="88" y="34" type="curve" smooth="yes"/>
      <point x="76" y="39"/>
      <point x="70" y="55"/>
      <point x="75" y="67" type="curve" smooth="yes"/>
      <point x="80" y="79"/>
      <point x="96" y="85"/>
      <point x="108" y="80" type="curve" smooth="yes"/>
      <point x="149" y="62"/>
      <point x="194" y="54"/>
      <point x="238" y="54" type="curve" smooth="yes"/>
      <point x="310" y="54"/>
      <point x="349" y="81"/>
      <point x="349" y="119" type="curve" smooth="yes"/>
      <point x="349" y="154"/>
      <point x="318" y="180"/>
      <point x="262" y="186" type="curve" smooth="yes"/>
      <point x="222" y="190" type="line" smooth="yes"/>
      <point x="103" y="202"/>
      <point x="79" y="250"/>
      <point x="79" y="294" type="curve" smooth="yes"/>
      <point x="79" y="343"/>
      <point x="111" y="403"/>
      <point x="232" y="403" type="curve" smooth="yes"/>
      <point x="277" y="403"/>
      <point x="317" y="396"/>
      <point x="348" y="387" type="curve" smooth="yes"/>
      <point x="361" y="384"/>
      <point x="369" y="369"/>
      <point x="365" y="356" type="curve" smooth="yes"/>
      <point x="362" y="343"/>
      <point x="347" y="335"/>
    </contour>
  </outline>
</glyph>
<glyph name="v" format="1">
  <advance width="461"/>
  <unicode hex="0076"/>
  <outline>
    <contour>
      <point x="91" y="384" type="curve" smooth="yes"/>
      <point x="150" y="233"/>
      <point x="203" y="127"/>
      <point x="255" y="42" type="curve"/>
      <point x="234" y="54" type="line"/>
      <point x="237" y="54" type="line"/>
      <point x="216" y="42" type="line"/>
      <point x="267" y="127"/>
      <point x="331" y="275"/>
      <point x="371" y="384" type="curve" smooth="yes"/>
      <point x="375" y="396"/>
      <point x="390" y="403"/>
      <point x="403" y="398" type="curve" smooth="yes"/>
      <point x="415" y="394"/>
      <point x="422" y="379"/>
      <point x="417" y="366" type="curve" smooth="yes"/>
      <point x="377" y="255"/>
      <point x="311" y="103"/>
      <point x="258" y="16" type="curve" smooth="yes"/>
      <point x="254" y="9"/>
      <point x="245" y="4"/>
      <point x="237" y="4" type="curve" smooth="yes"/>
      <point x="234" y="4" type="line" smooth="yes"/>
      <point x="226" y="4"/>
      <point x="217" y="9"/>
      <point x="213" y="16" type="curve" smooth="yes"/>
      <point x="159" y="103"/>
      <point x="104" y="211"/>
      <point x="45" y="366" type="curve" smooth="yes"/>
      <point x="40" y="379"/>
      <point x="46" y="393"/>
      <point x="59" y="398" type="curve" smooth="yes"/>
      <point x="72" y="403"/>
      <point x="86" y="397"/>
    </contour>
  </outline>
</glyph>
<glyph name="x" format="1">
  <advance width="457"/>
  <unicode hex="0078"/>
  <outline>
    <contour>
      <point x="49" y="49" type="curve" smooth="yes"/>
      <point x="114" y="123"/>
      <point x="272" y="293"/>
      <point x="349" y="391" type="curve" smooth="yes"/>
      <point x="358" y="401"/>
      <point x="374" y="403"/>
      <point x="385" y="395" type="curve" smooth="yes"/>
      <point x="395" y="386"/>
      <point x="397" y="370"/>
      <point x="389" y="359" type="curve" smooth="yes"/>
      <point x="310" y="261"/>
      <point x="152" y="91"/>
      <point x="87" y="17" type="curve" smooth="yes"/>
      <point x="78" y="6"/>
      <point x="62" y="5"/>
      <point x="52" y="14" type="curve" smooth="yes"/>
      <point x="41" y="23"/>
      <point x="40" y="39"/>
    </contour>
    <contour>
      <point x="100" y="391" type="curve" smooth="yes"/>
      <point x="178" y="299"/>
      <point x="318" y="152"/>
      <point x="408" y="49" type="curve" smooth="yes"/>
      <point x="417" y="39"/>
      <point x="416" y="23"/>
      <point x="405" y="14" type="curve" smooth="yes"/>
      <point x="395" y="5"/>
      <point x="379" y="6"/>
      <point x="370" y="17" type="curve" smooth="yes"/>
      <point x="280" y="120"/>
      <point x="140" y="267"/>
      <point x="62" y="359" type="curve" smooth="yes"/>
      <point x="53" y="369"/>
      <point x="55" y="385"/>
      <point x="65" y="394" type="curve" smooth="yes"/>
      <point x="75" y="403"/>
      <point x="91" y="401"/>
    </contour>
  </outline>
</glyph>
<glyph name="copyright" format="1">
  <advance width="663"/>
  <unicode hex="00A9"/>
  <outline>
    <contour>
      <point x="334" y="552" type="curve" smooth="yes"/>
      <point x="487" y="552"/>
      <point x="609" y="438"/>
      <point x="609" y="275" type="curve" smooth="yes"/>
      <point x="609" y="120"/>
      <point x="508" y="-1"/>
      <point x="334" y="-1" type="curve" smooth="yes"/>
      <point x="169" y="-1"/>
      <point x="54" y="120"/>
      <point x="54" y="272" type="curve"/>
      <point x="54" y="438"/>
      <point x="166" y="552"/>
    </contour>
    <contour>
      <point x="398" y="368" type="curve" smooth="yes"/>
      <point x="384" y="375"/>
      <point x="363" y="381"/>
      <point x="340" y="381" type="curve" smooth="yes"/>
      <point x="285" y="381"/>
      <point x="236" y="337"/>
      <point x="236" y="274" type="curve" smooth="yes"/>
      <point x="236" y="215"/>
      <point x="276" y="170"/>
      <point x="343" y="170" type="curve" smooth="yes"/>
      <point x="365" y="170"/>
      <point x="386" y="175"/>
      <point x="401" y="183" type="curve" smooth="yes"/>
      <point x="413" y="189"/>
      <point x="429" y="185"/>
      <point x="435" y="173" type="curve" smooth="yes"/>
      <point x="441" y="161"/>
      <point x="437" y="145"/>
      <point x="425" y="139" type="curve" smooth="yes"/>
      <point x="402" y="127"/>
      <point x="375" y="120"/>
      <point x="343" y="120" type="curve" smooth="yes"/>
      <point x="244" y="120"/>
      <point x="186" y="187"/>
      <point x="186" y="274" type="curve" smooth="yes"/>
      <point x="186" y="367"/>
      <point x="259" y="431"/>
      <point x="340" y="431" type="curve" smooth="yes"/>
      <point x="373" y="431"/>
      <point x="402" y="423"/>
      <point x="422" y="412" type="curve" smooth="yes"/>
      <point x="434" y="406"/>
      <point x="438" y="390"/>
      <point x="432" y="378" type="curve" smooth="yes"/>
      <point x="426" y="366"/>
      <point x="410" y="362"/>
    </contour>
    <contour>
      <point x="334" y="502" type="curve" smooth="yes"/>
      <point x="196" y="502"/>
      <point x="104" y="408"/>
      <point x="104" y="272" type="curve" smooth="yes"/>
      <point x="104" y="148"/>
      <point x="199" y="49"/>
      <point x="334" y="49" type="curve" smooth="yes"/>
      <point x="476" y="49"/>
      <point x="559" y="148"/>
      <point x="559" y="275" type="curve" smooth="yes"/>
      <point x="559" y="408"/>
      <point x="459" y="502"/>
    </contour>
  </outline>
</glyph>
<glyph name="macron" format="1">
  <advance width="500"/>
  <unicode hex="00AF"/>
  <outline>
    <contour>
      <point x="351" y="522" type="curve" smooth="yes"/>
      <point x="150" y="522" type="line" smooth="yes"/>
      <point x="137" y="522"/>
      <point x="125" y="534"/>
      <point x="125" y="547" type="curve" smooth="yes"/>
      <point x="125" y="561"/>
      <point x="137" y="572"/>
      <point x="150" y="572" type="curve" smooth="yes"/>
      <point x="351" y="572" type="line" smooth="yes"/>
      <point x="365" y="572"/>
      <point x="376" y="561"/>
      <point x="376" y="547" type="curve" smooth="yes"/>
      <point x="376" y="534"/>
      <point x="365" y="522"/>
    </contour>
  </outline>
</glyph>
<glyph name="degree" format="1">
  <advance width="450"/>
  <unicode hex="00B0"/>
  <outline>
    <contour>
      <point x="224" y="548" type="curve" smooth="yes"/>
      <point x="322" y="548"/>
      <point x="390" y="476"/>
      <point x="390" y="383" type="curve" smooth="yes"/>
      <point x="390" y="295"/>
      <point x="322" y="224"/>
      <point x="225" y="224" type="curve" smooth="yes"/>
      <point x="127" y="224"/>
      <point x="60" y="296"/>
      <point x="60" y="383" type="curve"/>
      <point x="60" y="473"/>
      <point x="125" y="548"/>
    </contour>
    <contour>
      <point x="224" y="498" type="curve" smooth="yes"/>
      <point x="155" y="498"/>
      <point x="110" y="445"/>
      <point x="110" y="383" type="curve" smooth="yes"/>
      <point x="110" y="322"/>
      <point x="157" y="274"/>
      <point x="225" y="274" type="curve" smooth="yes"/>
      <point x="292" y="274"/>
      <point x="340" y="321"/>
      <point x="340" y="383" type="curve" smooth="yes"/>
      <point x="340" y="448"/>
      <point x="292" y="498"/>
    </contour>
  </outline>
</glyph>
<glyph name="cedilla" format="1">
  <advance width="500"/>
  <unicode hex="00B8"/>
  <outline>
    <contour>
      <point x="316" y="-91" type="curve" smooth="yes"/>
      <point x="289" y="-117"/>
      <point x="239" y="-168"/>
      <point x="216" y="-191" type="curve" smooth="yes"/>
      <point x="206" y="-200"/>
      <point x="190" y="-200"/>
      <point x="180" y="-191" type="curve" smooth="yes"/>
      <point x="171" y="-181"/>
      <point x="171" y="-165"/>
      <point x="180" y="-155" type="curve" smooth="yes"/>
      <point x="203" y="-132"/>
      <point x="255" y="-81"/>
      <point x="282" y="-55" type="curve" smooth="yes"/>
      <point x="291" y="-46"/>
      <point x="308" y="-46"/>
      <point x="317" y="-56" type="curve" smooth="yes"/>
      <point x="326" y="-65"/>
      <point x="326" y="-82"/>
    </contour>
  </outline>
</glyph>
<glyph name="oslash" format="1">
  <advance width="510"/>
  <unicode hex="00F8"/>
  <outline>
    <contour>
      <point x="65" y="51" type="curve" smooth="yes"/>
      <point x="406" y="393" type="line" smooth="yes"/>
      <point x="416" y="402"/>
      <point x="432" y="402"/>
      <point x="442" y="393" type="curve" smooth="yes"/>
      <point x="451" y="383"/>
      <point x="451" y="367"/>
      <point x="442" y="357" type="curve" smooth="yes"/>
      <point x="101" y="15" type="line" smooth="yes"/>
      <point x="91" y="6"/>
      <point x="75" y="6"/>
      <point x="65" y="15" type="curve" smooth="yes"/>
      <point x="56" y="25"/>
      <point x="56" y="41"/>
    </contour>
    <component base="o" xOffset="3"/>
    <component base="o" xOffset="3"/>
  </outline>
</glyph>
<glyph name="dcaron" format="1">
  <advance width="641"/>
  <unicode hex="010F"/>
  <outline>
    <contour>
      <point x="616" y="567" type="curve" smooth="yes"/>
      <point x="596" y="428" type="line" smooth="yes"/>
      <point x="594" y="415"/>
      <point x="581" y="405"/>
      <point x="567" y="407" type="curve" smooth="yes"/>
      <point x="554" y="409"/>
      <point x="544" y="422"/>
      <point x="546" y="436" type="curve" smooth="yes"/>
      <point x="566" y="575" type="line" smooth="yes"/>
      <point x="568" y="588"/>
      <point x="581" y="598"/>
      <point x="595" y="596" type="curve" smooth="yes"/>
      <point x="608" y="594"/>
      <point x="618" y="581"/>
    </contour>
    <component base="d"/>
    <component base="d"/>
  </outline>
</glyph>
<glyph name="dotlessi" format="1">
  <advance width="217"/>
  <unicode hex="0131"/>
  <outline>
    <contour>
      <point x="83" y="33" type="curve" smooth="yes"/>
      <point x="83" y="375" type="line" smooth="yes"/>
      <point x="83" y="389"/>
      <point x="95" y="400"/>
      <point x="108" y="400" type="curve" smooth="yes"/>
      <point x="122" y="400"/>
      <point x="133" y="389"/>
      <point x="133" y="375" type="curve" smooth="yes"/>
      <point x="133" y="33" type="line" smooth="yes"/>
      <point x="133" y="20"/>
      <point x="122" y="8"/>
      <point x="108" y="8" type="curve" smooth="yes"/>
      <point x="95" y="8"/>
      <point x="83" y="20"/>
    </contour>
  </outline>
</glyph>
<glyph name="Lcaron" format="1">
  <advance width="479"/>
  <unicode hex="013D"/>
  <outline>
    <contour>
      <point x="351" y="527" type="curve" smooth="yes"/>
      <point x="331" y="388" type="line" smooth="yes"/>
      <point x="329" y="375"/>
      <point x="316" y="365"/>
      <point x="302" y="367" type="curve" smooth="yes"/>
      <point x="289" y="369"/>
      <point x="279" y="382"/>
      <point x="281" y="396" type="curve" smooth="yes"/>
      <point x="301" y="535" type="line" smooth="yes"/>
      <point x="303" y="548"/>
      <point x="316" y="558"/>
      <point x="330" y="556" type="curve" smooth="yes"/>
      <point x="343" y="554"/>
      <point x="353" y="541"/>
    </contour>
    <component base="L"/>
    <component base="L"/>
  </outline>
</glyph>
<glyph name="caron" format="1">
  <advance width="500"/>
  <unicode hex="02C7"/>
  <outline>
    <contour>
      <point x="177" y="616" type="curve" smooth="yes"/>
      <point x="203" y="590"/>
      <point x="239" y="553"/>
      <point x="263" y="529" type="curve" smooth="yes"/>
      <point x="272" y="519"/>
      <point x="272" y="503"/>
      <point x="263" y="493" type="curve" smooth="yes"/>
      <point x="253" y="484"/>
      <point x="237" y="484"/>
      <point x="227" y="493" type="curve" smooth="yes"/>
      <point x="203" y="517"/>
      <point x="167" y="554"/>
      <point x="141" y="580" type="curve" smooth="yes"/>
      <point x="132" y="590"/>
      <point x="132" y="606"/>
      <point x="141" y="616" type="curve" smooth="yes"/>
      <point x="151" y="625"/>
      <point x="167" y="625"/>
    </contour>
    <contour>
      <point x="233" y="529" type="curve" smooth="yes"/>
      <point x="256" y="552"/>
      <point x="293" y="590"/>
      <point x="319" y="616" type="curve" smooth="yes"/>
      <point x="329" y="625"/>
      <point x="345" y="625"/>
      <point x="355" y="616" type="curve" smooth="yes"/>
      <point x="364" y="606"/>
      <point x="364" y="590"/>
      <point x="355" y="580" type="curve" smooth="yes"/>
      <point x="329" y="554"/>
      <point x="292" y="516"/>
      <point x="269" y="493" type="curve" smooth="yes"/>
      <point x="259" y="484"/>
      <point x="243" y="484"/>
      <point x="233" y="493" type="curve" smooth="yes"/>
      <point x="224" y="503"/>
      <point x="224" y="519"/>
    </contour>
  </outline>
</glyph>
<glyph name="uni02C9" format="1">
  <advance width="440"/>
  <unicode hex="02C9"/>
  <outline>
    <contour>
      <point x="294" y="526" type="curve" smooth="yes"/>
      <point x="146" y="526" type="line" smooth="yes"/>
      <point x="133" y="526"/>
      <point x="121" y="538"/>
      <point x="121" y="551" type="curve" smooth="yes"/>
      <point x="121" y="565"/>
      <point x="133" y="576"/>
      <point x="146" y="576" type="curve" smooth="yes"/>
      <point x="294" y="576" type="line" smooth="yes"/>
      <point x="308" y="576"/>
      <point x="319" y="565"/>
      <point x="319" y="551" type="curve" smooth="yes"/>
      <point x="319" y="538"/>
      <point x="308" y="526"/>
    </contour>
  </outline>
</glyph>
<glyph name="dotaccent" format="1">
  <advance width="500"/>
  <unicode hex="02D9"/>
  <outline>
    <contour>
      <point x="241" y="607" type="curve" smooth="yes"/>
      <point x="263" y="607"/>
      <point x="283" y="588"/>
      <point x="283" y="556" type="curve" smooth="yes"/>
      <point x="283" y="524"/>
      <point x="263" y="507"/>
      <point x="241" y="507" type="curve" smooth="yes"/>
      <point x="217" y="507"/>
      <point x="197" y="526"/>
      <point x="197" y="556" type="curve" smooth="yes"/>
      <point x="197" y="586"/>
      <point x="217" y="607"/>
    </contour>
    <contour>
      <point x="241" y="557" type="curve" smooth="yes"/>
      <point x="241" y="557"/>
      <point x="247" y="552"/>
      <point x="247" y="556" type="curve" smooth="yes"/>
      <point x="247" y="560"/>
      <point x="242" y="557"/>
      <point x="241" y="557" type="curve" smooth="yes"/>
      <point x="241" y="557"/>
      <point x="233" y="562"/>
      <point x="233" y="556" type="curve" smooth="yes"/>
      <point x="233" y="550"/>
      <point x="241" y="557"/>
    </contour>
  </outline>
</glyph>
<glyph name="ogonek" format="1">
  <advance width="500"/>
  <unicode hex="02DB"/>
  <outline>
    <contour>
      <point x="298" y="29" type="curve" smooth="yes"/>
      <point x="298" y="-6" type="line" smooth="yes"/>
      <point x="298" y="-13"/>
      <point x="294" y="-21"/>
      <point x="289" y="-25" type="curve" smooth="yes"/>
      <point x="216" y="-85"/>
      <point x="195" y="-107"/>
      <point x="195" y="-131" type="curve" smooth="yes"/>
      <point x="195" y="-159"/>
      <point x="243" y="-166"/>
      <point x="288" y="-166" type="curve" smooth="yes"/>
      <point x="302" y="-166"/>
      <point x="313" y="-178"/>
      <point x="313" y="-191" type="curve" smooth="yes"/>
      <point x="313" y="-205"/>
      <point x="302" y="-216"/>
      <point x="288" y="-216" type="curve" smooth="yes"/>
      <point x="178" y="-216"/>
      <point x="145" y="-173"/>
      <point x="145" y="-131" type="curve" smooth="yes"/>
      <point x="145" y="-101"/>
      <point x="158" y="-67"/>
      <point x="257" y="13" type="curve"/>
      <point x="248" y="-6" type="line"/>
      <point x="248" y="29" type="line" smooth="yes"/>
      <point x="248" y="43"/>
      <point x="260" y="54"/>
      <point x="273" y="54" type="curve" smooth="yes"/>
      <point x="287" y="54"/>
      <point x="298" y="42"/>
    </contour>
  </outline>
</glyph>
<glyph name="tilde" format="1">
  <advance width="500"/>
  <unicode hex="02DC"/>
  <outline>
    <contour>
      <point x="119" y="544" type="curve" smooth="yes"/>
      <point x="145" y="582"/>
      <point x="174" y="603"/>
      <point x="200" y="603" type="curve" smooth="yes"/>
      <point x="223" y="603"/>
      <point x="239" y="593"/>
      <point x="267" y="571" type="curve" smooth="yes"/>
      <point x="281" y="560"/>
      <point x="292" y="551"/>
      <point x="304" y="551" type="curve" smooth="yes"/>
      <point x="319" y="551"/>
      <point x="327" y="569"/>
      <point x="340" y="588" type="curve" smooth="yes"/>
      <point x="348" y="599"/>
      <point x="364" y="602"/>
      <point x="375" y="595" type="curve" smooth="yes"/>
      <point x="386" y="587"/>
      <point x="389" y="571"/>
      <point x="382" y="560" type="curve" smooth="yes"/>
      <point x="355" y="519"/>
      <point x="331" y="501"/>
      <point x="304" y="501" type="curve" smooth="yes"/>
      <point x="282" y="501"/>
      <point x="263" y="512"/>
      <point x="237" y="531" type="curve" smooth="yes"/>
      <point x="221" y="543"/>
      <point x="213" y="553"/>
      <point x="200" y="553" type="curve" smooth="yes"/>
      <point x="186" y="553"/>
      <point x="173" y="534"/>
      <point x="161" y="516" type="curve" smooth="yes"/>
      <point x="153" y="505"/>
      <point x="137" y="502"/>
      <point x="126" y="509" type="curve" smooth="yes"/>
      <point x="115" y="517"/>
      <point x="112" y="533"/>
    </contour>
  </outline>
</glyph>
<glyph name="knVisarga" format="1">
  <advance width="366"/>
  <unicode hex="0C83"/>
  <outline>
    <contour>
      <point x="183" y="484" type="curve" smooth="yes"/>
      <point x="250" y="484"/>
      <point x="292" y="431"/>
      <point x="292" y="378" type="curve" smooth="yes"/>
      <point x="292" y="320"/>
      <point x="250" y="272"/>
      <point x="183" y="272" type="curve" smooth="yes"/>
      <point x="116" y="272"/>
      <point x="74" y="320"/>
      <point x="74" y="378" type="curve" smooth="yes"/>
      <point x="74" y="430"/>
      <point x="119" y="484"/>
    </contour>
    <contour>
      <point x="183" y="221" type="curve" smooth="yes"/>
      <point x="250" y="221"/>
      <point x="292" y="169"/>
      <point x="292" y="114" type="curve" smooth="yes"/>
      <point x="292" y="58"/>
      <point x="250" y="9"/>
      <point x="183" y="9" type="curve" smooth="yes"/>
      <point x="116" y="9"/>
      <point x="74" y="58"/>
      <point x="74" y="115" type="curve" smooth="yes"/>
      <point x="74" y="167"/>
      <point x="119" y="221"/>
    </contour>
    <contour>
      <point x="183" y="434" type="curve" smooth="yes"/>
      <point x="149" y="434"/>
      <point x="124" y="406"/>
      <point x="124" y="378" type="curve" smooth="yes"/>
      <point x="124" y="346"/>
      <point x="148" y="322"/>
      <point x="183" y="322" type="curve" smooth="yes"/>
      <point x="218" y="322"/>
      <point x="242" y="346"/>
      <point x="242" y="378" type="curve" smooth="yes"/>
      <point x="242" y="407"/>
      <point x="218" y="434"/>
    </contour>
    <contour>
      <point x="183" y="171" type="curve" smooth="yes"/>
      <point x="149" y="171"/>
      <point x="124" y="143"/>
      <point x="124" y="115" type="curve" smooth="yes"/>
      <point x="124" y="84"/>
      <point x="148" y="59"/>
      <point x="183" y="59" type="curve" smooth="yes"/>
      <point x="218" y="59"/>
      <point x="242" y="84"/>
      <point x="242" y="114" type="curve" smooth="yes"/>
      <point x="242" y="144"/>
      <point x="218" y="171"/>
    </contour>
  </outline>
</glyph>
<glyph name="knDA" format="1">
  <advance width="751"/>
  <unicode hex="0CA6"/>
  <outline>
    <contour>
      <point x="111" y="468" type="curve" smooth="yes"/>
      <point x="514" y="468" type="line" smooth="yes"/>
      <point x="576" y="468"/>
      <point x="613" y="490"/>
      <point x="641" y="534" type="curve" smooth="yes"/>
      <point x="648" y="546"/>
      <point x="664" y="549"/>
      <point x="675" y="542" type="curve" smooth="yes"/>
      <point x="687" y="535"/>
      <point x="690" y="519"/>
      <point x="683" y="508" type="curve" smooth="yes"/>
      <point x="647" y="448"/>
      <point x="598" y="418"/>
      <point x="514" y="418" type="curve" smooth="yes"/>
      <point x="111" y="418" type="line" smooth="yes"/>
      <point x="98" y="418"/>
      <point x="86" y="430"/>
      <point x="86" y="443" type="curve" smooth="yes"/>
      <point x="86" y="457"/>
      <point x="98" y="468"/>
    </contour>
    <contour>
      <point x="328" y="420" type="curve" smooth="yes"/>
      <point x="215" y="370"/>
      <point x="131" y="272"/>
      <point x="131" y="178" type="curve" smooth="yes"/>
      <point x="131" y="104"/>
      <point x="171" y="58"/>
      <point x="231" y="58" type="curve" smooth="yes"/>
      <point x="287" y="58"/>
      <point x="318" y="89"/>
      <point x="348" y="146" type="curve" smooth="yes"/>
      <point x="352" y="153"/>
      <point x="362" y="159"/>
      <point x="370" y="159" type="curve" smooth="yes"/>
      <point x="375" y="159" type="line" smooth="yes"/>
      <point x="383" y="159"/>
      <point x="393" y="153"/>
      <point x="397" y="146" type="curve" smooth="yes"/>
      <point x="429" y="87"/>
      <point x="460" y="58"/>
      <point x="519" y="58" type="curve" smooth="yes"/>
      <point x="579" y="58"/>
      <point x="620" y="104"/>
      <point x="620" y="178" type="curve" smooth="yes"/>
      <point x="620" y="271"/>
      <point x="532" y="369"/>
      <point x="416" y="420" type="curve" smooth="yes"/>
      <point x="404" y="426"/>
      <point x="398" y="441"/>
      <point x="403" y="453" type="curve" smooth="yes"/>
      <point x="409" y="465"/>
      <point x="424" y="471"/>
      <point x="436" y="466" type="curve" smooth="yes"/>
      <point x="574" y="405"/>
      <point x="670" y="287"/>
      <point x="670" y="178" type="curve" smooth="yes"/>
      <point x="670" y="68"/>
      <point x="603" y="8"/>
      <point x="519" y="8" type="curve" smooth="yes"/>
      <point x="440" y="8"/>
      <point x="397" y="41"/>
      <point x="353" y="122" type="curve"/>
      <point x="375" y="109" type="line"/>
      <point x="370" y="109" type="line"/>
      <point x="392" y="122" type="line"/>
      <point x="352" y="45"/>
      <point x="305" y="8"/>
      <point x="231" y="8" type="curve" smooth="yes"/>
      <point x="145" y="8"/>
      <point x="81" y="68"/>
      <point x="81" y="178" type="curve" smooth="yes"/>
      <point x="81" y="288"/>
      <point x="173" y="406"/>
      <point x="308" y="466" type="curve" smooth="yes"/>
      <point x="320" y="471"/>
      <point x="335" y="465"/>
      <point x="341" y="453" type="curve" smooth="yes"/>
      <point x="346" y="441"/>
      <point x="340" y="426"/>
    </contour>
  </outline>
</glyph>
<glyph name="knLA" format="1">
  <advance width="731"/>
  <unicode hex="0CB2"/>
  <outline>
    <contour>
      <point x="136" y="367" type="curve" smooth="yes"/>
      <point x="162" y="333"/>
      <point x="194" y="311"/>
      <point x="229" y="311" type="curve" smooth="yes"/>
      <point x="265" y="311"/>
      <point x="294" y="333"/>
      <point x="294" y="369" type="curve" smooth="yes"/>
      <point x="294" y="405"/>
      <point x="269" y="433"/>
      <point x="227" y="433" type="curve" smooth="yes"/>
      <point x="164" y="433"/>
      <point x="123" y="342"/>
      <point x="123" y="259" type="curve" smooth="yes"/>
      <point x="123" y="147"/>
      <point x="214" y="58"/>
      <point x="374" y="58" type="curve" smooth="yes"/>
      <point x="541" y="58"/>
      <point x="607" y="157"/>
      <point x="607" y="255" type="curve" smooth="yes"/>
      <point x="607" y="326"/>
      <point x="570" y="385"/>
      <point x="518" y="423" type="curve" smooth="yes"/>
      <point x="507" y="431"/>
      <point x="505" y="447"/>
      <point x="513" y="458" type="curve" smooth="yes"/>
      <point x="521" y="469"/>
      <point x="537" y="471"/>
      <point x="548" y="463" type="curve" smooth="yes"/>
      <point x="612" y="417"/>
      <point x="657" y="344"/>
      <point x="657" y="255" type="curve" smooth="yes"/>
      <point x="657" y="137"/>
      <point x="583" y="8"/>
      <point x="374" y="8" type="curve" smooth="yes"/>
      <point x="174" y="8"/>
      <point x="73" y="125"/>
      <point x="73" y="259" type="curve" smooth="yes"/>
      <point x="73" y="382"/>
      <point x="146" y="483"/>
      <point x="227" y="483" type="curve" smooth="yes"/>
      <point x="301" y="483"/>
      <point x="344" y="431"/>
      <point x="344" y="369" type="curve" smooth="yes"/>
      <point x="344" y="305"/>
      <point x="295" y="261"/>
      <point x="229" y="261" type="curve" smooth="yes"/>
      <point x="180" y="261"/>
      <point x="134" y="287"/>
      <point x="96" y="337" type="curve" smooth="yes"/>
      <point x="88" y="348"/>
      <point x="90" y="364"/>
      <point x="101" y="372" type="curve" smooth="yes"/>
      <point x="112" y="380"/>
      <point x="128" y="378"/>
    </contour>
  </outline>
</glyph>
<glyph name="knsignAA" format="1">
  <advance width="369"/>
  <unicode hex="0CBE"/>
  <outline>
    <contour>
      <point x="-170" y="468" type="curve" smooth="yes"/>
      <point x="23" y="468" type="line" smooth="yes"/>
      <point x="183" y="468"/>
      <point x="299" y="364"/>
      <point x="299" y="177" type="curve" smooth="yes"/>
      <point x="299" y="63"/>
      <point x="238" y="4"/>
      <point x="164" y="4" type="curve" smooth="yes"/>
      <point x="92" y="4"/>
      <point x="51" y="57"/>
      <point x="50" y="115" type="curve" smooth="yes"/>
      <point x="49" y="182"/>
      <point x="92" y="241"/>
      <point x="185" y="241" type="curve" smooth="yes"/>
      <point x="217" y="241"/>
      <point x="249" y="234"/>
      <point x="277" y="225" type="curve" smooth="yes"/>
      <point x="289" y="221"/>
      <point x="297" y="206"/>
      <point x="293" y="193" type="curve" smooth="yes"/>
      <point x="289" y="181"/>
      <point x="274" y="173"/>
      <point x="261" y="177" type="curve" smooth="yes"/>
      <point x="239" y="184"/>
      <point x="211" y="191"/>
      <point x="185" y="191" type="curve" smooth="yes"/>
      <point x="130" y="191"/>
      <point x="99" y="158"/>
      <point x="100" y="117" type="curve" smooth="yes"/>
      <point x="101" y="83"/>
      <point x="124" y="54"/>
      <point x="164" y="54" type="curve" smooth="yes"/>
      <point x="216" y="54"/>
      <point x="249" y="105"/>
      <point x="249" y="177" type="curve" smooth="yes"/>
      <point x="249" y="330"/>
      <point x="155" y="418"/>
      <point x="23" y="418" type="curve" smooth="yes"/>
      <point x="-170" y="418" type="line" smooth="yes"/>
      <point x="-184" y="418"/>
      <point x="-195" y="430"/>
      <point x="-195" y="443" type="curve" smooth="yes"/>
      <point x="-195" y="457"/>
      <point x="-184" y="468"/>
    </contour>
  </outline>
</glyph>
<glyph name="knvLL" format="1">
  <advance width="1239"/>
  <unicode hex="0CE1"/>
  <outline>
    <contour>
      <point x="762" y="468" type="curve" smooth="yes"/>
      <point x="888" y="468" type="line" smooth="yes"/>
      <point x="1048" y="468"/>
      <point x="1164" y="364"/>
      <point x="1164" y="177" type="curve" smooth="yes"/>
      <point x="1164" y="63"/>
      <point x="1103" y="4"/>
      <point x="1029" y="4" type="curve" smooth="yes"/>
      <point x="954" y="4"/>
      <point x="912" y="58"/>
      <point x="911" y="116" type="curve" smooth="yes"/>
      <point x="910" y="182"/>
      <point x="958" y="248"/>
      <point x="1050" y="248" type="curve" smooth="yes"/>
      <point x="1082" y="248"/>
      <point x="1114" y="244"/>
      <point x="1142" y="235" type="curve" smooth="yes"/>
      <point x="1154" y="231"/>
      <point x="1162" y="216"/>
      <point x="1158" y="203" type="curve" smooth="yes"/>
      <point x="1154" y="191"/>
      <point x="1139" y="183"/>
      <point x="1126" y="187" type="curve" smooth="yes"/>
      <point x="1104" y="194"/>
      <point x="1076" y="198"/>
      <point x="1050" y="198" type="curve" smooth="yes"/>
      <point x="994" y="198"/>
      <point x="960" y="160"/>
      <point x="961" y="118" type="curve" smooth="yes"/>
      <point x="962" y="84"/>
      <point x="986" y="54"/>
      <point x="1029" y="54" type="curve" smooth="yes"/>
      <point x="1081" y="54"/>
      <point x="1114" y="105"/>
      <point x="1114" y="177" type="curve" smooth="yes"/>
      <point x="1114" y="330"/>
      <point x="1020" y="418"/>
      <point x="888" y="418" type="curve" smooth="yes"/>
      <point x="762" y="418" type="line" smooth="yes"/>
      <point x="749" y="418"/>
      <point x="737" y="430"/>
      <point x="737" y="443" type="curve" smooth="yes"/>
      <point x="737" y="457"/>
      <point x="749" y="468"/>
    </contour>
    <component base="knvL"/>
    <component base="knvL"/>
  </outline>
</glyph>
<glyph name="knZero" format="1">
  <advance width="616"/>
  <unicode hex="0CE6"/>
  <outline>
    <contour>
      <point x="305" y="483" type="curve" smooth="yes"/>
      <point x="427" y="483"/>
      <point x="527" y="384"/>
      <point x="527" y="243" type="curve" smooth="yes"/>
      <point x="527" y="109"/>
      <point x="446" y="1"/>
      <point x="305" y="1" type="curve" smooth="yes"/>
      <point x="176" y="1"/>
      <point x="80" y="109"/>
      <point x="80" y="241" type="curve" smooth="yes"/>
      <point x="80" y="384"/>
      <point x="173" y="483"/>
    </contour>
    <contour>
      <point x="305" y="433" type="curve" smooth="yes"/>
      <point x="201" y="433"/>
      <point x="130" y="352"/>
      <point x="130" y="241" type="curve" smooth="yes"/>
      <point x="130" y="139"/>
      <point x="202" y="51"/>
      <point x="305" y="51" type="curve" smooth="yes"/>
      <point x="416" y="51"/>
      <point x="477" y="139"/>
      <point x="477" y="243" type="curve" smooth="yes"/>
      <point x="477" y="352"/>
      <point x="401" y="433"/>
    </contour>
  </outline>
</glyph>
<glyph name="knOne" format="1">
  <advance width="616"/>
  <unicode hex="0CE7"/>
  <outline>
    <contour>
      <point x="409" y="51" type="curve" smooth="yes"/>
      <point x="447" y="103"/>
      <point x="475" y="167"/>
      <point x="475" y="243" type="curve" smooth="yes"/>
      <point x="475" y="353"/>
      <point x="401" y="433"/>
      <point x="305" y="433" type="curve" smooth="yes"/>
      <point x="201" y="433"/>
      <point x="132" y="353"/>
      <point x="132" y="242" type="curve" smooth="yes"/>
      <point x="132" y="166"/>
      <point x="166" y="103"/>
      <point x="206" y="50" type="curve" smooth="yes"/>
      <point x="214" y="39"/>
      <point x="212" y="23"/>
      <point x="201" y="15" type="curve" smooth="yes"/>
      <point x="190" y="7"/>
      <point x="174" y="9"/>
      <point x="166" y="20" type="curve" smooth="yes"/>
      <point x="120" y="81"/>
      <point x="82" y="154"/>
      <point x="82" y="242" type="curve" smooth="yes"/>
      <point x="82" y="385"/>
      <point x="173" y="483"/>
      <point x="305" y="483" type="curve" smooth="yes"/>
      <point x="427" y="483"/>
      <point x="525" y="385"/>
      <point x="525" y="243" type="curve" smooth="yes"/>
      <point x="525" y="155"/>
      <point x="493" y="81"/>
      <point x="449" y="21" type="curve" smooth="yes"/>
      <point x="441" y="10"/>
      <point x="425" y="8"/>
      <point x="414" y="16" type="curve" smooth="yes"/>
      <point x="403" y="24"/>
      <point x="401" y="40"/>
    </contour>
  </outline>
</glyph>
<glyph name="quoteleft" format="1">
  <advance width="255"/>
  <unicode hex="2018"/>
  <outline>
    <contour>
      <point x="141" y="387" type="curve" smooth="yes"/>
      <point x="112" y="426"/>
      <point x="95" y="478"/>
      <point x="95" y="529" type="curve" smooth="yes"/>
      <point x="95" y="551"/>
      <point x="98" y="572"/>
      <point x="102" y="586" type="curve" smooth="yes"/>
      <point x="107" y="599"/>
      <point x="121" y="606"/>
      <point x="134" y="602" type="curve" smooth="yes"/>
      <point x="147" y="597"/>
      <point x="154" y="583"/>
      <point x="150" y="570" type="curve" smooth="yes"/>
      <point x="146" y="560"/>
      <point x="145" y="545"/>
      <point x="145" y="529" type="curve" smooth="yes"/>
      <point x="145" y="488"/>
      <point x="158" y="448"/>
      <point x="181" y="417" type="curve" smooth="yes"/>
      <point x="189" y="406"/>
      <point x="187" y="390"/>
      <point x="176" y="382" type="curve" smooth="yes"/>
      <point x="165" y="374"/>
      <point x="149" y="376"/>
    </contour>
  </outline>
</glyph>
<glyph name="guilsinglleft" format="1">
  <advance width="278"/>
  <unicode hex="2039"/>
  <outline>
    <contour>
      <point x="96" y="214" type="curve" smooth="yes"/>
      <point x="207" y="64" type="line" smooth="yes"/>
      <point x="215" y="53"/>
      <point x="213" y="37"/>
      <point x="202" y="29" type="curve" smooth="yes"/>
      <point x="191" y="21"/>
      <point x="175" y="23"/>
      <point x="167" y="34" type="curve" smooth="yes"/>
      <point x="56" y="184" type="line" smooth="yes"/>
      <point x="48" y="195"/>
      <point x="50" y="211"/>
      <point x="61" y="219" type="curve" smooth="yes"/>
      <point x="72" y="227"/>
      <point x="88" y="225"/>
    </contour>
    <contour>
      <point x="207" y="339" type="curve" smooth="yes"/>
      <point x="96" y="189" type="line" smooth="yes"/>
      <point x="88" y="178"/>
      <point x="72" y="176"/>
      <point x="61" y="184" type="curve" smooth="yes"/>
      <point x="50" y="192"/>
      <point x="48" y="208"/>
      <point x="56" y="219" type="curve" smooth="yes"/>
      <point x="167" y="369" type="line" smooth="yes"/>
      <point x="175" y="380"/>
      <point x="191" y="382"/>
      <point x="202" y="374" type="curve" smooth="yes"/>
      <point x="213" y="366"/>
      <point x="215" y="350"/>
    </contour>
  </outline>
</glyph>
<glyph name="infinity" format="1">
  <advance width="732"/>
  <unicode hex="221E"/>
  <outline>
    <contour>
      <point x="395" y="281" type="curve" smooth="yes"/>
      <point x="395" y="281" type="line" smooth="yes"/>
      <point x="438" y="221"/>
      <point x="473" y="180"/>
      <point x="523" y="180" type="curve" smooth="yes"/>
      <point x="572" y="180"/>
      <point x="610" y="218"/>
      <point x="610" y="277" type="curve" smooth="yes"/>
      <point x="610" y="341"/>
      <point x="562" y="378"/>
      <point x="518" y="378" type="curve" smooth="yes"/>
      <point x="460" y="378"/>
      <point x="424" y="324"/>
      <point x="387" y="259" type="curve" smooth="yes"/>
      <point x="340" y="178"/>
      <point x="282" y="131"/>
      <point x="212" y="131" type="curve" smooth="yes"/>
      <point x="134" y="131"/>
      <point x="72" y="188"/>
      <point x="72" y="279" type="curve" smooth="yes"/>
      <point x="72" y="376"/>
      <point x="137" y="429"/>
      <point x="207" y="429" type="curve" smooth="yes"/>
      <point x="278" y="429"/>
      <point x="325" y="381"/>
    </contour>
    <contour>
      <point x="355" y="253" type="line"/>
      <point x="299" y="331"/>
      <point x="266" y="379"/>
      <point x="207" y="379" type="curve" smooth="yes"/>
      <point x="161" y="379"/>
      <point x="122" y="340"/>
      <point x="122" y="279" type="curve" smooth="yes"/>
      <point x="122" y="220"/>
      <point x="160" y="181"/>
      <point x="212" y="181" type="curve" smooth="yes"/>
      <point x="266" y="181"/>
      <point x="308" y="224"/>
      <point x="343" y="285" type="curve" smooth="yes"/>
      <point x="392" y="370"/>
      <point x="444" y="428"/>
      <point x="518" y="428" type="curve" smooth="yes"/>
      <point x="584" y="428"/>
      <point x="660" y="375"/>
      <point x="660" y="277" type="curve" smooth="yes"/>
      <point x="660" y="184"/>
      <point x="597" y="130"/>
      <point x="523" y="130" type="curve" smooth="yes"/>
      <point x="461" y="130"/>
      <point x="410" y="173"/>
      <point x="355" y="253" type="curve"/>
    </contour>
  </outline>
</glyph>
<glyph name="integral" format="1">
  <advance width="328"/>
  <unicode hex="222B"/>
  <outline>
    <contour>
      <point x="276" y="545" type="curve" smooth="yes"/>
      <point x="194" y="540"/>
      <point x="164" y="506"/>
      <point x="164" y="448" type="curve" smooth="yes"/>
      <point x="164" y="33" type="line" smooth="yes"/>
      <point x="164" y="19"/>
      <point x="153" y="8"/>
      <point x="139" y="8" type="curve" smooth="yes"/>
      <point x="126" y="8"/>
      <point x="114" y="20"/>
      <point x="114" y="33" type="curve" smooth="yes"/>
      <point x="114" y="448" type="line" smooth="yes"/>
      <point x="114" y="530"/>
      <point x="148" y="588"/>
      <point x="274" y="595" type="curve" smooth="yes"/>
      <point x="287" y="596"/>
      <point x="299" y="585"/>
      <point x="300" y="571" type="curve" smooth="yes"/>
      <point x="301" y="558"/>
      <point x="290" y="546"/>
    </contour>
    <contour>
      <point x="2" y="-122" type="curve" smooth="yes"/>
      <point x="84" y="-117"/>
      <point x="114" y="-83"/>
      <point x="114" y="-25" type="curve" smooth="yes"/>
      <point x="114" y="390" type="line" smooth="yes"/>
      <point x="114" y="404"/>
      <point x="126" y="415"/>
      <point x="139" y="415" type="curve" smooth="yes"/>
      <point x="153" y="415"/>
      <point x="164" y="404"/>
      <point x="164" y="390" type="curve" smooth="yes"/>
      <point x="164" y="-25" type="line" smooth="yes"/>
      <point x="164" y="-107"/>
      <point x="130" y="-165"/>
      <point x="4" y="-172" type="curve" smooth="yes"/>
      <point x="-9" y="-173"/>
      <point x="-21" y="-162"/>
      <point x="-22" y="-148" type="curve" smooth="yes"/>
      <point x="-23" y="-135"/>
      <point x="-12" y="-123"/>
    </contour>
  </outline>
</glyph>
<glyph name="greaterequal" format="1">
  <advance width="540"/>
  <unicode hex="2265"/>
  <outline>
    <contour>
      <point x="101" y="114" type="curve" smooth="yes"/>
      <point x="438" y="114" type="line" smooth="yes"/>
      <point x="452" y="114"/>
      <point x="463" y="103"/>
      <point x="463" y="89" type="curve" smooth="yes"/>
      <point x="463" y="76"/>
      <point x="452" y="64"/>
      <point x="438" y="64" type="curve" smooth="yes"/>
      <point x="101" y="64" type="line" smooth="yes"/>
      <point x="88" y="64"/>
      <point x="76" y="76"/>
      <point x="76" y="89" type="curve" smooth="yes"/>
      <point x="76" y="103"/>
      <point x="88" y="114"/>
    </contour>
    <contour>
      <point x="439" y="297" type="curve" smooth="yes"/>
      <point x="129" y="187" type="line" smooth="yes"/>
      <point x="117" y="183"/>
      <point x="102" y="190"/>
      <point x="97" y="203" type="curve" smooth="yes"/>
      <point x="93" y="215"/>
      <point x="100" y="230"/>
      <point x="113" y="235" type="curve" smooth="yes"/>
      <point x="423" y="345" type="line" smooth="yes"/>
      <point x="435" y="349"/>
      <point x="450" y="342"/>
      <point x="455" y="329" type="curve" smooth="yes"/>
      <point x="459" y="317"/>
      <point x="452" y="302"/>
    </contour>
    <contour>
      <point x="124" y="463" type="curve" smooth="yes"/>
      <point x="445" y="348" type="line" smooth="yes"/>
      <point x="458" y="343"/>
      <point x="465" y="328"/>
      <point x="461" y="316" type="curve" smooth="yes"/>
      <point x="456" y="303"/>
      <point x="441" y="296"/>
      <point x="429" y="300" type="curve" smooth="yes"/>
      <point x="108" y="415" type="line" smooth="yes"/>
      <point x="95" y="420"/>
      <point x="88" y="435"/>
      <point x="92" y="447" type="curve" smooth="yes"/>
      <point x="97" y="460"/>
      <point x="112" y="467"/>
    </contour>
  </outline>
</glyph>
<glyph name="circumflexcmb.cap" format="1">
  <advance width="0"/>
  <outline>
    <contour>
      <point x="12" y="713" type="curve" smooth="yes"/>
      <point x="-21" y="689"/>
      <point x="-56" y="665"/>
      <point x="-84" y="644" type="curve" smooth="yes"/>
      <point x="-95" y="636"/>
      <point x="-111" y="638"/>
      <point x="-119" y="649" type="curve" smooth="yes"/>
      <point x="-127" y="660"/>
      <point x="-125" y="676"/>
      <point x="-114" y="684" type="curve" smooth="yes"/>
      <point x="-86" y="705"/>
      <point x="-51" y="729"/>
      <point x="-18" y="753" type="curve" smooth="yes"/>
      <point x="-7" y="761"/>
      <point x="9" y="759"/>
      <point x="17" y="748" type="curve" smooth="yes"/>
      <point x="25" y="737"/>
      <point x="23" y="721"/>
    </contour>
    <contour>
      <point x="85" y="644" type="curve" smooth="yes"/>
      <point x="57" y="665"/>
      <point x="23" y="689"/>
      <point x="-10" y="713" type="curve" smooth="yes"/>
      <point x="-21" y="720"/>
      <point x="-24" y="736"/>
      <point x="-16" y="747" type="curve" smooth="yes"/>
      <point x="-9" y="758"/>
      <point x="7" y="761"/>
      <point x="18" y="753" type="curve" smooth="yes"/>
      <point x="53" y="729"/>
      <point x="87" y="705"/>
      <point x="115" y="684" type="curve" smooth="yes"/>
      <point x="126" y="676"/>
      <point x="128" y="660"/>
      <point x="120" y="649" type="curve" smooth="yes"/>
      <point x="112" y="638"/>
      <point x="96" y="636"/>
    </contour>
  </outline>
</glyph>
<glyph name="commaaccent" format="1">
  <advance width="240"/>
  <outline>
    <contour>
      <point x="158" y="-82" type="curve" smooth="yes"/>
      <point x="166" y="-97"/>
      <point x="170" y="-114"/>
      <point x="170" y="-131" type="curve" smooth="yes"/>
      <point x="170" y="-177"/>
      <point x="137" y="-220"/>
      <point x="79" y="-248" type="curve" smooth="yes"/>
      <point x="66" y="-253"/>
      <point x="51" y="-248"/>
      <point x="45" y="-236" type="curve" smooth="yes"/>
      <point x="40" y="-223"/>
      <point x="45" y="-208"/>
      <point x="57" y="-202" type="curve" smooth="yes"/>
      <point x="93" y="-186"/>
      <point x="120" y="-161"/>
      <point x="120" y="-131" type="curve" smooth="yes"/>
      <point x="120" y="-122"/>
      <point x="118" y="-113"/>
      <point x="114" y="-106" type="curve" smooth="yes"/>
      <point x="108" y="-94"/>
      <point x="112" y="-79"/>
      <point x="124" y="-72" type="curve" smooth="yes"/>
      <point x="136" y="-66"/>
      <point x="151" y="-70"/>
    </contour>
  </outline>
</glyph>
<glyph name="dieresiscmb.cap" format="1">
  <advance width="0"/>
  <outline>
    <contour>
      <point x="-98" y="741" type="curve" smooth="yes"/>
      <point x="-78" y="741"/>
      <point x="-57" y="723"/>
      <point x="-57" y="690" type="curve" smooth="yes"/>
      <point x="-57" y="654"/>
      <point x="-78" y="639"/>
      <point x="-98" y="639" type="curve" smooth="yes"/>
      <point x="-120" y="639"/>
      <point x="-141" y="657"/>
      <point x="-141" y="690" type="curve" smooth="yes"/>
      <point x="-141" y="721"/>
      <point x="-120" y="741"/>
    </contour>
    <contour>
      <point x="95" y="741" type="curve" smooth="yes"/>
      <point x="115" y="741"/>
      <point x="136" y="723"/>
      <point x="136" y="690" type="curve" smooth="yes"/>
      <point x="136" y="654"/>
      <point x="115" y="639"/>
      <point x="95" y="639" type="curve" smooth="yes"/>
      <point x="73" y="639"/>
      <point x="53" y="655"/>
      <point x="53" y="690" type="curve"/>
      <point x="53" y="722"/>
      <point x="73" y="741"/>
    </contour>
    <contour>
      <point x="-98" y="691" type="curve" smooth="yes"/>
      <point x="-98" y="691"/>
      <point x="-91" y="685"/>
      <point x="-91" y="690" type="curve" smooth="yes"/>
      <point x="-91" y="695"/>
      <point x="-98" y="689"/>
      <point x="-98" y="689" type="curve" smooth="yes"/>
      <point x="-98" y="689"/>
      <point x="-107" y="698"/>
      <point x="-107" y="690" type="curve" smooth="yes"/>
      <point x="-107" y="683"/>
      <point x="-98" y="691"/>
    </contour>
    <contour>
      <point x="95" y="691" type="curve" smooth="yes"/>
      <point x="95" y="691"/>
      <point x="103" y="684"/>
      <point x="103" y="690" type="curve" smooth="yes"/>
      <point x="103" y="697"/>
      <point x="95" y="689"/>
      <point x="95" y="689" type="curve" smooth="yes"/>
      <point x="95" y="689"/>
      <point x="86" y="698"/>
      <point x="86" y="690" type="curve" smooth="yes"/>
      <point x="86" y="683"/>
      <point x="95" y="691"/>
    </contour>
  </outline>
</glyph>
<glyph name="dotaccentcmb.cap" format="1">
  <advance width="0"/>
  <outline>
    <contour>
      <point x="0" y="750" type="curve" smooth="yes"/>
      <point x="21" y="750"/>
      <point x="43" y="730"/>
      <point x="43" y="697" type="curve" smooth="yes"/>
      <point x="43" y="666"/>
      <point x="22" y="647"/>
      <point x="0" y="647" type="curve" smooth="yes"/>
      <point x="-26" y="647"/>
      <point x="-46" y="669"/>
      <point x="-46" y="697" type="curve"/>
      <point x="-46" y="728"/>
      <point x="-25" y="750"/>
    </contour>
    <contour>
      <point x="0" y="700" type="curve" smooth="yes"/>
      <point x="-1" y="700"/>
      <point x="4" y="694"/>
      <point x="4" y="697" type="curve" smooth="yes"/>
      <point x="4" y="699"/>
      <point x="0" y="697"/>
      <point x="0" y="697" type="curve"/>
      <point x="0" y="697"/>
      <point x="-7" y="702"/>
      <point x="-7" y="697" type="curve"/>
      <point x="-7" y="692"/>
      <point x="1" y="700"/>
    </contour>
  </outline>
</glyph>
<glyph name="knAIlengthmark.following" format="1">
  <advance width="604"/>
  <outline>
    <contour>
      <point x="243" y="-206" type="curve" smooth="yes"/>
      <point x="266" y="-219"/>
      <point x="283" y="-226"/>
      <point x="309" y="-226" type="curve" smooth="yes"/>
      <point x="334" y="-226"/>
      <point x="358" y="-209"/>
      <point x="358" y="-179" type="curve" smooth="yes"/>
      <point x="358" y="-158"/>
      <point x="342" y="-136"/>
      <point x="311" y="-136" type="curve" smooth="yes"/>
      <point x="275" y="-136"/>
      <point x="253" y="-172"/>
      <point x="253" y="-209" type="curve" smooth="yes"/>
      <point x="253" y="-251"/>
      <point x="269" y="-281"/>
      <point x="298" y="-311" type="curve" smooth="yes"/>
      <point x="325" y="-337"/>
      <point x="369" y="-349"/>
      <point x="412" y="-349" type="curve" smooth="yes"/>
      <point x="456" y="-349"/>
      <point x="494" y="-334"/>
      <point x="518" y="-311" type="curve" smooth="yes"/>
      <point x="539" y="-290"/>
      <point x="550" y="-260"/>
      <point x="550" y="-227" type="curve" smooth="yes"/>
      <point x="550" y="-192"/>
      <point x="535" y="-160"/>
      <point x="515" y="-139" type="curve" smooth="yes"/>
      <point x="500" y="-124"/>
      <point x="488" y="-116"/>
      <point x="469" y="-107" type="curve" smooth="yes"/>
      <point x="458" y="-101"/>
      <point x="453" y="-87"/>
      <point x="458" y="-76" type="curve" smooth="yes"/>
      <point x="464" y="-65"/>
      <point x="478" y="-60"/>
      <point x="489" y="-65" type="curve" smooth="yes"/>
      <point x="512" y="-76"/>
      <point x="528" y="-88"/>
      <point x="547" y="-107" type="curve" smooth="yes"/>
      <point x="575" y="-134"/>
      <point x="596" y="-178"/>
      <point x="596" y="-227" type="curve" smooth="yes"/>
      <point x="596" y="-272"/>
      <point x="579" y="-314"/>
      <point x="550" y="-343" type="curve" smooth="yes"/>
      <point x="520" y="-374"/>
      <point x="470" y="-395"/>
      <point x="412" y="-395" type="curve" smooth="yes"/>
      <point x="357" y="-395"/>
      <point x="299" y="-377"/>
      <point x="266" y="-343" type="curve" smooth="yes"/>
      <point x="227" y="-305"/>
      <point x="207" y="-263"/>
      <point x="207" y="-209" type="curve" smooth="yes"/>
      <point x="207" y="-142"/>
      <point x="252" y="-90"/>
      <point x="311" y="-90" type="curve" smooth="yes"/>
      <point x="376" y="-90"/>
      <point x="404" y="-136"/>
      <point x="404" y="-179" type="curve" smooth="yes"/>
      <point x="404" y="-237"/>
      <point x="358" y="-272"/>
      <point x="309" y="-272" type="curve" smooth="yes"/>
      <point x="273" y="-272"/>
      <point x="250" y="-263"/>
      <point x="221" y="-246" type="curve" smooth="yes"/>
      <point x="210" y="-240"/>
      <point x="206" y="-225"/>
      <point x="212" y="-215" type="curve" smooth="yes"/>
      <point x="218" y="-204"/>
      <point x="233" y="-200"/>
    </contour>
    <contour>
      <point x="478" y="-63" type="curve" smooth="yes"/>
      <point x="507" y="-54"/>
      <point x="525" y="-36"/>
      <point x="525" y="-7" type="curve" smooth="yes"/>
      <point x="525" y="9"/>
      <point x="518" y="26"/>
      <point x="506" y="39" type="curve" smooth="yes"/>
      <point x="498" y="49"/>
      <point x="500" y="64"/>
      <point x="509" y="72" type="curve" smooth="yes"/>
      <point x="519" y="80"/>
      <point x="534" y="78"/>
      <point x="542" y="69" type="curve" smooth="yes"/>
      <point x="560" y="46"/>
      <point x="571" y="19"/>
      <point x="571" y="-7" type="curve" smooth="yes"/>
      <point x="571" y="-56"/>
      <point x="543" y="-92"/>
      <point x="490" y="-107" type="curve" smooth="yes"/>
      <point x="479" y="-111"/>
      <point x="465" y="-103"/>
      <point x="462" y="-91" type="curve" smooth="yes"/>
      <point x="458" y="-80"/>
      <point x="466" y="-66"/>
    </contour>
  </outline>
</glyph>
<glyph name="knBI" format="1">
  <advance width="754"/>
  <outline>
    <contour>
      <point x="73" y="429" type="curve" smooth="yes"/>
      <point x="103" y="462"/>
      <point x="140" y="483"/>
      <point x="183" y="483" type="curve" smooth="yes"/>
      <point x="252" y="483"/>
      <point x="293" y="437"/>
      <point x="293" y="381" type="curve" smooth="yes"/>
      <point x="293" y="336"/>
      <point x="271" y="297"/>
      <point x="205" y="244" type="curve" smooth="yes"/>
      <point x="164" y="211"/>
      <point x="135" y="176"/>
      <point x="135" y="135" type="curve" smooth="yes"/>
      <point x="135" y="92"/>
      <point x="167" y="58"/>
      <point x="222" y="58" type="curve" smooth="yes"/>
      <point x="281" y="58"/>
      <point x="321" y="88"/>
      <point x="358" y="147" type="curve" smooth="yes"/>
      <point x="362" y="154"/>
      <point x="371" y="159"/>
      <point x="379" y="159" type="curve" smooth="yes"/>
      <point x="384" y="159" type="line" smooth="yes"/>
      <point x="392" y="159"/>
      <point x="402" y="153"/>
      <point x="406" y="146" type="curve" smooth="yes"/>
      <point x="439" y="88"/>
      <point x="479" y="58"/>
      <point x="536" y="58" type="curve" smooth="yes"/>
      <point x="595" y="58"/>
      <point x="635" y="118"/>
      <point x="635" y="221" type="curve" smooth="yes"/>
      <point x="635" y="416"/>
      <point x="515" y="596"/>
      <point x="411" y="596" type="curve" smooth="yes"/>
      <point x="369" y="596"/>
      <point x="347" y="566"/>
      <point x="347" y="539" type="curve" smooth="yes"/>
      <point x="347" y="510"/>
      <point x="370" y="485"/>
      <point x="409" y="485" type="curve" smooth="yes"/>
      <point x="453" y="485"/>
      <point x="488" y="515"/>
      <point x="512" y="553" type="curve" smooth="yes"/>
      <point x="519" y="564"/>
      <point x="535" y="567"/>
      <point x="547" y="560" type="curve" smooth="yes"/>
      <point x="558" y="553"/>
      <point x="561" y="537"/>
      <point x="554" y="525" type="curve" smooth="yes"/>
      <point x="520" y="473"/>
      <point x="469" y="435"/>
      <point x="409" y="435" type="curve" smooth="yes"/>
      <point x="334" y="435"/>
      <point x="297" y="486"/>
      <point x="297" y="539" type="curve" smooth="yes"/>
      <point x="297" y="588"/>
      <point x="333" y="646"/>
      <point x="411" y="646" type="curve" smooth="yes"/>
      <point x="529" y="646"/>
      <point x="685" y="460"/>
      <point x="685" y="221" type="curve" smooth="yes"/>
      <point x="685" y="66"/>
      <point x="613" y="8"/>
      <point x="536" y="8" type="curve" smooth="yes"/>
      <point x="461" y="8"/>
      <point x="407" y="44"/>
      <point x="362" y="122" type="curve"/>
      <point x="384" y="109" type="line"/>
      <point x="379" y="109" type="line"/>
      <point x="400" y="121" type="line"/>
      <point x="353" y="44"/>
      <point x="297" y="8"/>
      <point x="222" y="8" type="curve" smooth="yes"/>
      <point x="131" y="8"/>
      <point x="85" y="68"/>
      <point x="85" y="135" type="curve" smooth="yes"/>
      <point x="85" y="190"/>
      <point x="118" y="237"/>
      <point x="173" y="282" type="curve" smooth="yes"/>
      <point x="221" y="321"/>
      <point x="243" y="348"/>
      <point x="243" y="381" type="curve" smooth="yes"/>
      <point x="243" y="411"/>
      <point x="218" y="433"/>
      <point x="183" y="433" type="curve" smooth="yes"/>
      <point x="154" y="433"/>
      <point x="131" y="418"/>
      <point x="111" y="395" type="curve" smooth="yes"/>
      <point x="102" y="385"/>
      <point x="85" y="384"/>
      <point x="75" y="393" type="curve" smooth="yes"/>
      <point x="65" y="402"/>
      <point x="64" y="419"/>
    </contour>
  </outline>
</glyph>
<glyph name="knDDAc2" format="1">
  <advance width="0"/>
  <outline>
    <contour>
      <point x="-79" y="-94" type="curve" smooth="yes"/>
      <point x="63" y="-94"/>
      <point x="131" y="-202"/>
      <point x="131" y="-265" type="curve" smooth="yes"/>
      <point x="131" y="-327"/>
      <point x="83" y="-368"/>
      <point x="20" y="-368" type="curve" smooth="yes"/>
      <point x="-32" y="-368"/>
      <point x="-60" y="-349"/>
      <point x="-96" y="-315" type="curve"/>
      <point x="-80" y="-321" type="line"/>
      <point x="-82" y="-321" type="line"/>
      <point x="-64" y="-313" type="line"/>
      <point x="-95" y="-351"/>
      <point x="-130" y="-368"/>
      <point x="-173" y="-368" type="curve" smooth="yes"/>
      <point x="-236" y="-368"/>
      <point x="-278" y="-330"/>
      <point x="-278" y="-265" type="curve" smooth="yes"/>
      <point x="-278" y="-202"/>
      <point x="-212" y="-94"/>
    </contour>
    <contour>
      <point x="-79" y="-140" type="curve" smooth="yes"/>
      <point x="-176" y="-140"/>
      <point x="-232" y="-216"/>
      <point x="-232" y="-265" type="curve" smooth="yes"/>
      <point x="-232" y="-302"/>
      <point x="-208" y="-322"/>
      <point x="-173" y="-322" type="curve" smooth="yes"/>
      <point x="-144" y="-322"/>
      <point x="-121" y="-309"/>
      <point x="-100" y="-283" type="curve" smooth="yes"/>
      <point x="-96" y="-279"/>
      <point x="-88" y="-275"/>
      <point x="-82" y="-275" type="curve" smooth="yes"/>
      <point x="-80" y="-275" type="line" smooth="yes"/>
      <point x="-75" y="-275"/>
      <point x="-68" y="-278"/>
      <point x="-64" y="-281" type="curve" smooth="yes"/>
      <point x="-38" y="-307"/>
      <point x="-18" y="-322"/>
      <point x="20" y="-322" type="curve" smooth="yes"/>
      <point x="55" y="-322"/>
      <point x="85" y="-301"/>
      <point x="85" y="-265" type="curve" smooth="yes"/>
      <point x="85" y="-216"/>
      <point x="25" y="-140"/>
    </contour>
    <contour>
      <point x="21" y="-165" type="curve" smooth="yes"/>
      <point x="4" y="-175"/>
      <point x="-7" y="-189"/>
      <point x="-7" y="-207" type="curve" smooth="yes"/>
      <point x="-7" y="-224"/>
      <point x="9" y="-234"/>
      <point x="25" y="-234" type="curve" smooth="yes"/>
      <point x="43" y="-234"/>
      <point x="60" y="-223"/>
      <point x="73" y="-209" type="curve" smooth="yes"/>
      <point x="82" y="-200"/>
      <point x="97" y="-200"/>
      <point x="106" y="-208" type="curve" smooth="yes"/>
      <point x="115" y="-217"/>
      <point x="115" y="-232"/>
      <point x="107" y="-241" type="curve" smooth="yes"/>
      <point x="84" y="-265"/>
      <point x="55" y="-280"/>
      <point x="25" y="-280" type="curve" smooth="yes"/>
      <point x="-19" y="-280"/>
      <point x="-53" y="-248"/>
      <point x="-53" y="-207" type="curve"/>
      <point x="-53" y="-173"/>
      <point x="-36" y="-145"/>
      <point x="-3" y="-125" type="curve" smooth="yes"/>
      <point x="8" y="-119"/>
      <point x="22" y="-123"/>
      <point x="29" y="-133" type="curve" smooth="yes"/>
      <point x="35" y="-144"/>
      <point x="31" y="-158"/>
    </contour>
  </outline>
</glyph>
<glyph name="knDDI" format="1">
  <advance width="759"/>
  <outline>
    <contour>
      <point x="379" y="458" type="curve" smooth="yes"/>
      <point x="565" y="458"/>
      <point x="697" y="307"/>
      <point x="697" y="178" type="curve" smooth="yes"/>
      <point x="697" y="76"/>
      <point x="634" y="8"/>
      <point x="527" y="8" type="curve" smooth="yes"/>
      <point x="463" y="8"/>
      <point x="394" y="42"/>
      <point x="351" y="122" type="curve"/>
      <point x="373" y="109" type="line"/>
      <point x="368" y="109" type="line"/>
      <point x="390" y="122" type="line"/>
      <point x="348" y="44"/>
      <point x="301" y="8"/>
      <point x="227" y="8" type="curve" smooth="yes"/>
      <point x="147" y="8"/>
      <point x="75" y="66"/>
      <point x="75" y="174" type="curve" smooth="yes"/>
      <point x="75" y="340"/>
      <point x="222" y="458"/>
    </contour>
    <contour>
      <point x="379" y="408" type="curve" smooth="yes"/>
      <point x="250" y="408"/>
      <point x="125" y="312"/>
      <point x="125" y="174" type="curve" smooth="yes"/>
      <point x="125" y="102"/>
      <point x="171" y="58"/>
      <point x="227" y="58" type="curve" smooth="yes"/>
      <point x="283" y="58"/>
      <point x="316" y="88"/>
      <point x="346" y="146" type="curve" smooth="yes"/>
      <point x="350" y="153"/>
      <point x="360" y="159"/>
      <point x="368" y="159" type="curve" smooth="yes"/>
      <point x="373" y="159" type="line" smooth="yes"/>
      <point x="381" y="159"/>
      <point x="391" y="153"/>
      <point x="395" y="146" type="curve" smooth="yes"/>
      <point x="428" y="86"/>
      <point x="479" y="58"/>
      <point x="527" y="58" type="curve" smooth="yes"/>
      <point x="602" y="58"/>
      <point x="647" y="106"/>
      <point x="647" y="178" type="curve" smooth="yes"/>
      <point x="647" y="287"/>
      <point x="531" y="408"/>
    </contour>
    <contour>
      <point x="618" y="287" type="curve" smooth="yes"/>
      <point x="618" y="388"/>
      <point x="588" y="433"/>
      <point x="541" y="479" type="curve" smooth="yes"/>
      <point x="494" y="525"/>
      <point x="418" y="551"/>
      <point x="336" y="551" type="curve" smooth="yes"/>
      <point x="215" y="551"/>
      <point x="147" y="508"/>
      <point x="147" y="465" type="curve" smooth="yes"/>
      <point x="147" y="436"/>
      <point x="162" y="416"/>
      <point x="192" y="399" type="curve" smooth="yes"/>
      <point x="203" y="392"/>
      <point x="207" y="376"/>
      <point x="201" y="364" type="curve" smooth="yes"/>
      <point x="194" y="353"/>
      <point x="178" y="349"/>
      <point x="166" y="355" type="curve" smooth="yes"/>
      <point x="118" y="384"/>
      <point x="97" y="418"/>
      <point x="97" y="465" type="curve" smooth="yes"/>
      <point x="97" y="520"/>
      <point x="145" y="601"/>
      <point x="336" y="601" type="curve" smooth="yes"/>
      <point x="432" y="601"/>
      <point x="520" y="569"/>
      <point x="575" y="515" type="curve" smooth="yes"/>
      <point x="632" y="461"/>
      <point x="668" y="408"/>
      <point x="668" y="287" type="curve" smooth="yes"/>
      <point x="668" y="274"/>
      <point x="657" y="262"/>
      <point x="643" y="262" type="curve" smooth="yes"/>
      <point x="630" y="262"/>
      <point x="618" y="274"/>
    </contour>
    <contour>
      <point x="565" y="337" type="curve" smooth="yes"/>
      <point x="514" y="337"/>
      <point x="480" y="300"/>
      <point x="480" y="267" type="curve" smooth="yes"/>
      <point x="480" y="237"/>
      <point x="507" y="212"/>
      <point x="541" y="212" type="curve" smooth="yes"/>
      <point x="579" y="212"/>
      <point x="608" y="234"/>
      <point x="625" y="271" type="curve" smooth="yes"/>
      <point x="631" y="284"/>
      <point x="646" y="289"/>
      <point x="658" y="284" type="curve" smooth="yes"/>
      <point x="671" y="278"/>
      <point x="676" y="263"/>
      <point x="671" y="251" type="curve" smooth="yes"/>
      <point x="644" y="192"/>
      <point x="599" y="162"/>
      <point x="541" y="162" type="curve" smooth="yes"/>
      <point x="475" y="162"/>
      <point x="430" y="212"/>
      <point x="430" y="267" type="curve" smooth="yes"/>
      <point x="430" y="320"/>
      <point x="478" y="387"/>
      <point x="565" y="387" type="curve" smooth="yes"/>
      <point x="579" y="387"/>
      <point x="590" y="376"/>
      <point x="590" y="362" type="curve" smooth="yes"/>
      <point x="590" y="349"/>
      <point x="579" y="337"/>
    </contour>
  </outline>
</glyph>
<glyph name="knDI" format="1">
  <advance width="734"/>
  <outline>
    <contour>
      <point x="368" y="456" type="curve" smooth="yes"/>
      <point x="526" y="456"/>
      <point x="664" y="320"/>
      <point x="664" y="178" type="curve" smooth="yes"/>
      <point x="664" y="68"/>
      <point x="597" y="8"/>
      <point x="513" y="8" type="curve" smooth="yes"/>
      <point x="434" y="8"/>
      <point x="391" y="41"/>
      <point x="347" y="122" type="curve"/>
      <point x="369" y="109" type="line"/>
      <point x="364" y="109" type="line"/>
      <point x="386" y="122" type="line"/>
      <point x="346" y="45"/>
      <point x="299" y="8"/>
      <point x="225" y="8" type="curve" smooth="yes"/>
      <point x="139" y="8"/>
      <point x="75" y="68"/>
      <point x="75" y="178" type="curve" smooth="yes"/>
      <point x="75" y="321"/>
      <point x="208" y="456"/>
    </contour>
    <contour>
      <point x="368" y="406" type="curve" smooth="yes"/>
      <point x="236" y="406"/>
      <point x="125" y="297"/>
      <point x="125" y="178" type="curve" smooth="yes"/>
      <point x="125" y="104"/>
      <point x="165" y="58"/>
      <point x="225" y="58" type="curve" smooth="yes"/>
      <point x="281" y="58"/>
      <point x="312" y="89"/>
      <point x="342" y="146" type="curve" smooth="yes"/>
      <point x="346" y="153"/>
      <point x="356" y="159"/>
      <point x="364" y="159" type="curve" smooth="yes"/>
      <point x="369" y="159" type="line" smooth="yes"/>
      <point x="377" y="159"/>
      <point x="387" y="153"/>
      <point x="391" y="146" type="curve" smooth="yes"/>
      <point x="423" y="87"/>
      <point x="454" y="58"/>
      <point x="513" y="58" type="curve" smooth="yes"/>
      <point x="573" y="58"/>
      <point x="614" y="104"/>
      <point x="614" y="178" type="curve" smooth="yes"/>
      <point x="614" y="296"/>
      <point x="498" y="406"/>
    </contour>
    <contour>
      <point x="592" y="287" type="curve" smooth="yes"/>
      <point x="592" y="388"/>
      <point x="569" y="434"/>
      <point x="523" y="479" type="curve" smooth="yes"/>
      <point x="477" y="525"/>
      <point x="405" y="551"/>
      <point x="326" y="551" type="curve" smooth="yes"/>
      <point x="210" y="551"/>
      <point x="145" y="508"/>
      <point x="145" y="465" type="curve" smooth="yes"/>
      <point x="145" y="436"/>
      <point x="160" y="416"/>
      <point x="188" y="398" type="curve" smooth="yes"/>
      <point x="200" y="391"/>
      <point x="203" y="375"/>
      <point x="196" y="364" type="curve" smooth="yes"/>
      <point x="189" y="352"/>
      <point x="173" y="349"/>
      <point x="162" y="356" type="curve" smooth="yes"/>
      <point x="116" y="384"/>
      <point x="95" y="418"/>
      <point x="95" y="465" type="curve" smooth="yes"/>
      <point x="95" y="520"/>
      <point x="142" y="601"/>
      <point x="326" y="601" type="curve" smooth="yes"/>
      <point x="419" y="601"/>
      <point x="505" y="569"/>
      <point x="559" y="515" type="curve" smooth="yes"/>
      <point x="613" y="460"/>
      <point x="642" y="408"/>
      <point x="642" y="287" type="curve" smooth="yes"/>
      <point x="642" y="274"/>
      <point x="631" y="262"/>
      <point x="617" y="262" type="curve" smooth="yes"/>
      <point x="604" y="262"/>
      <point x="592" y="274"/>
    </contour>
  </outline>
</glyph>
<glyph name="knGA.base" format="1">
  <advance width="649"/>
  <outline>
    <contour>
      <point x="92" y="468" type="curve" smooth="yes"/>
      <point x="453" y="468" type="line" smooth="yes"/>
      <point x="467" y="468"/>
      <point x="478" y="457"/>
      <point x="478" y="443" type="curve" smooth="yes"/>
      <point x="478" y="430"/>
      <point x="467" y="418"/>
      <point x="453" y="418" type="curve" smooth="yes"/>
      <point x="92" y="418" type="line" smooth="yes"/>
      <point x="79" y="418"/>
      <point x="67" y="430"/>
      <point x="67" y="443" type="curve" smooth="yes"/>
      <point x="67" y="457"/>
      <point x="79" y="468"/>
    </contour>
    <contour>
      <point x="480" y="44" type="curve" smooth="yes"/>
      <point x="501" y="87"/>
      <point x="513" y="128"/>
      <point x="513" y="186" type="curve" smooth="yes"/>
      <point x="513" y="271"/>
      <point x="464" y="367"/>
      <point x="350" y="420" type="curve" smooth="yes"/>
      <point x="338" y="426"/>
      <point x="333" y="441"/>
      <point x="338" y="454" type="curve" smooth="yes"/>
      <point x="344" y="466"/>
      <point x="359" y="471"/>
      <point x="372" y="466" type="curve" smooth="yes"/>
      <point x="508" y="403"/>
      <point x="563" y="287"/>
      <point x="563" y="186" type="curve" smooth="yes"/>
      <point x="563" y="120"/>
      <point x="549" y="71"/>
      <point x="526" y="22" type="curve" smooth="yes"/>
      <point x="520" y="10"/>
      <point x="504" y="5"/>
      <point x="492" y="10" type="curve" smooth="yes"/>
      <point x="480" y="16"/>
      <point x="475" y="32"/>
    </contour>
    <contour>
      <point x="314" y="420" type="curve" smooth="yes"/>
      <point x="201" y="368"/>
      <point x="158" y="272"/>
      <point x="158" y="186" type="curve" smooth="yes"/>
      <point x="158" y="130"/>
      <point x="169" y="85"/>
      <point x="190" y="45" type="curve" smooth="yes"/>
      <point x="196" y="33"/>
      <point x="192" y="17"/>
      <point x="180" y="11" type="curve" smooth="yes"/>
      <point x="168" y="5"/>
      <point x="152" y="9"/>
      <point x="146" y="21" type="curve" smooth="yes"/>
      <point x="121" y="69"/>
      <point x="108" y="120"/>
      <point x="108" y="186" type="curve" smooth="yes"/>
      <point x="108" y="288"/>
      <point x="159" y="404"/>
      <point x="292" y="466" type="curve" smooth="yes"/>
      <point x="305" y="471"/>
      <point x="320" y="466"/>
      <point x="326" y="454" type="curve" smooth="yes"/>
      <point x="331" y="441"/>
      <point x="326" y="426"/>
    </contour>
  </outline>
</glyph>
<glyph name="knGHAc2" format="1">
  <advance width="119"/>
  <outline>
    <contour>
      <point x="135" y="-159" type="curve" smooth="yes"/>
      <point x="156" y="-182"/>
      <point x="179" y="-192"/>
      <point x="205" y="-192" type="curve" smooth="yes"/>
      <point x="231" y="-192"/>
      <point x="247" y="-174"/>
      <point x="247" y="-149" type="curve" smooth="yes"/>
      <point x="247" y="-135"/>
      <point x="245" y="-123"/>
      <point x="242" y="-111" type="curve" smooth="yes"/>
      <point x="238" y="-99"/>
      <point x="246" y="-86"/>
      <point x="258" y="-83" type="curve" smooth="yes"/>
      <point x="270" y="-79"/>
      <point x="283" y="-87"/>
      <point x="286" y="-99" type="curve" smooth="yes"/>
      <point x="291" y="-115"/>
      <point x="293" y="-131"/>
      <point x="293" y="-149" type="curve" smooth="yes"/>
      <point x="293" y="-200"/>
      <point x="259" y="-238"/>
      <point x="205" y="-238" type="curve" smooth="yes"/>
      <point x="167" y="-238"/>
      <point x="134" y="-224"/>
      <point x="101" y="-191" type="curve" smooth="yes"/>
      <point x="93" y="-182"/>
      <point x="93" y="-167"/>
      <point x="102" y="-158" type="curve" smooth="yes"/>
      <point x="111" y="-150"/>
      <point x="126" y="-150"/>
    </contour>
    <contour>
      <point x="-55" y="-349" type="curve" smooth="yes"/>
      <point x="-55" y="-415" type="line" smooth="yes"/>
      <point x="-55" y="-427"/>
      <point x="-66" y="-438"/>
      <point x="-78" y="-438" type="curve" smooth="yes"/>
      <point x="-90" y="-438"/>
      <point x="-101" y="-427"/>
      <point x="-101" y="-415" type="curve" smooth="yes"/>
      <point x="-101" y="-349" type="line" smooth="yes"/>
      <point x="-101" y="-337"/>
      <point x="-90" y="-326"/>
      <point x="-78" y="-326" type="curve" smooth="yes"/>
      <point x="-66" y="-326"/>
      <point x="-55" y="-337"/>
    </contour>
    <component base="knPAc2"/>
    <component base="knPAc2"/>
  </outline>
</glyph>
<glyph name="knJHI" format="1">
  <advance width="1237"/>
  <outline>
    <contour>
      <point x="871" y="-83" type="curve" smooth="yes"/>
      <point x="871" y="-186" type="line" smooth="yes"/>
      <point x="871" y="-200"/>
      <point x="860" y="-211"/>
      <point x="846" y="-211" type="curve" smooth="yes"/>
      <point x="833" y="-211"/>
      <point x="821" y="-200"/>
      <point x="821" y="-186" type="curve" smooth="yes"/>
      <point x="821" y="-83" type="line" smooth="yes"/>
      <point x="821" y="-70"/>
      <point x="833" y="-58"/>
      <point x="846" y="-58" type="curve" smooth="yes"/>
      <point x="860" y="-58"/>
      <point x="871" y="-70"/>
    </contour>
    <contour>
      <point x="566" y="149" type="curve" smooth="yes"/>
      <point x="609" y="83"/>
      <point x="654" y="58"/>
      <point x="708" y="58" type="curve" smooth="yes"/>
      <point x="784" y="58"/>
      <point x="822" y="108"/>
      <point x="822" y="179" type="curve" smooth="yes"/>
      <point x="822" y="255"/>
      <point x="778" y="344"/>
      <point x="723" y="405" type="curve" smooth="yes"/>
      <point x="713" y="415"/>
      <point x="714" y="431"/>
      <point x="724" y="440" type="curve" smooth="yes"/>
      <point x="734" y="450"/>
      <point x="750" y="449"/>
      <point x="759" y="439" type="curve" smooth="yes"/>
      <point x="824" y="368"/>
      <point x="872" y="265"/>
      <point x="872" y="179" type="curve" smooth="yes"/>
      <point x="872" y="78"/>
      <point x="816" y="8"/>
      <point x="708" y="8" type="curve" smooth="yes"/>
      <point x="640" y="8"/>
      <point x="581" y="37"/>
      <point x="524" y="121" type="curve" smooth="yes"/>
      <point x="517" y="132"/>
      <point x="520" y="148"/>
      <point x="531" y="156" type="curve" smooth="yes"/>
      <point x="542" y="163"/>
      <point x="558" y="160"/>
    </contour>
    <contour>
      <point x="877" y="149" type="curve" smooth="yes"/>
      <point x="920" y="83"/>
      <point x="965" y="58"/>
      <point x="1019" y="58" type="curve" smooth="yes"/>
      <point x="1095" y="58"/>
      <point x="1133" y="108"/>
      <point x="1133" y="179" type="curve" smooth="yes"/>
      <point x="1133" y="255"/>
      <point x="1089" y="344"/>
      <point x="1034" y="405" type="curve" smooth="yes"/>
      <point x="1024" y="415"/>
      <point x="1025" y="431"/>
      <point x="1035" y="440" type="curve" smooth="yes"/>
      <point x="1045" y="450"/>
      <point x="1061" y="449"/>
      <point x="1070" y="439" type="curve" smooth="yes"/>
      <point x="1135" y="368"/>
      <point x="1183" y="265"/>
      <point x="1183" y="179" type="curve" smooth="yes"/>
      <point x="1183" y="78"/>
      <point x="1127" y="8"/>
      <point x="1019" y="8" type="curve" smooth="yes"/>
      <point x="951" y="8"/>
      <point x="892" y="37"/>
      <point x="835" y="121" type="curve" smooth="yes"/>
      <point x="828" y="132"/>
      <point x="831" y="148"/>
      <point x="842" y="156" type="curve" smooth="yes"/>
      <point x="853" y="163"/>
      <point x="869" y="160"/>
    </contour>
    <component base="knRI"/>
    <component base="knRI"/>
  </outline>
</glyph>
<glyph name="knKHI" format="1">
  <advance width="773"/>
  <outline>
    <contour>
      <point x="297" y="453" type="curve" smooth="yes"/>
      <point x="304" y="436"/>
      <point x="313" y="411"/>
      <point x="313" y="383" type="curve" smooth="yes"/>
      <point x="313" y="320"/>
      <point x="268" y="273"/>
      <point x="193" y="273" type="curve" smooth="yes"/>
      <point x="132" y="273"/>
      <point x="86" y="319"/>
      <point x="86" y="375" type="curve" smooth="yes"/>
      <point x="86" y="424"/>
      <point x="122" y="482"/>
      <point x="208" y="482" type="curve" smooth="yes"/>
      <point x="348" y="482"/>
      <point x="444" y="377"/>
      <point x="444" y="248" type="curve" smooth="yes"/>
      <point x="444" y="140"/>
      <point x="357" y="4"/>
      <point x="208" y="4" type="curve" smooth="yes"/>
      <point x="105" y="4"/>
      <point x="75" y="60"/>
      <point x="75" y="107" type="curve" smooth="yes"/>
      <point x="75" y="151"/>
      <point x="114" y="210"/>
      <point x="197" y="210" type="curve" smooth="yes"/>
      <point x="267" y="210"/>
      <point x="335" y="175"/>
      <point x="395" y="125" type="curve" smooth="yes"/>
      <point x="449" y="79"/>
      <point x="497" y="58"/>
      <point x="546" y="58" type="curve" smooth="yes"/>
      <point x="617" y="58"/>
      <point x="659" y="119"/>
      <point x="659" y="221" type="curve" smooth="yes"/>
      <point x="659" y="422"/>
      <point x="569" y="596"/>
      <point x="465" y="596" type="curve" smooth="yes"/>
      <point x="423" y="596"/>
      <point x="401" y="566"/>
      <point x="401" y="539" type="curve" smooth="yes"/>
      <point x="401" y="510"/>
      <point x="424" y="485"/>
      <point x="463" y="485" type="curve" smooth="yes"/>
      <point x="507" y="485"/>
      <point x="542" y="515"/>
      <point x="566" y="553" type="curve" smooth="yes"/>
      <point x="573" y="564"/>
      <point x="589" y="567"/>
      <point x="601" y="560" type="curve" smooth="yes"/>
      <point x="612" y="553"/>
      <point x="615" y="537"/>
      <point x="608" y="525" type="curve" smooth="yes"/>
      <point x="574" y="473"/>
      <point x="523" y="435"/>
      <point x="463" y="435" type="curve" smooth="yes"/>
      <point x="388" y="435"/>
      <point x="351" y="486"/>
      <point x="351" y="539" type="curve" smooth="yes"/>
      <point x="351" y="588"/>
      <point x="387" y="646"/>
      <point x="465" y="646" type="curve" smooth="yes"/>
      <point x="583" y="646"/>
      <point x="709" y="474"/>
      <point x="709" y="221" type="curve" smooth="yes"/>
      <point x="709" y="73"/>
      <point x="639" y="8"/>
      <point x="546" y="8" type="curve" smooth="yes"/>
      <point x="487" y="8"/>
      <point x="429" y="31"/>
      <point x="363" y="87" type="curve" smooth="yes"/>
      <point x="313" y="129"/>
      <point x="257" y="160"/>
      <point x="197" y="160" type="curve" smooth="yes"/>
      <point x="154" y="160"/>
      <point x="125" y="133"/>
      <point x="125" y="107" type="curve" smooth="yes"/>
      <point x="125" y="78"/>
      <point x="155" y="54"/>
      <point x="208" y="54" type="curve" smooth="yes"/>
      <point x="327" y="54"/>
      <point x="394" y="162"/>
      <point x="394" y="248" type="curve" smooth="yes"/>
      <point x="394" y="349"/>
      <point x="318" y="432"/>
      <point x="208" y="432" type="curve" smooth="yes"/>
      <point x="162" y="432"/>
      <point x="136" y="404"/>
      <point x="136" y="375" type="curve" smooth="yes"/>
      <point x="136" y="345"/>
      <point x="162" y="323"/>
      <point x="193" y="323" type="curve" smooth="yes"/>
      <point x="234" y="323"/>
      <point x="263" y="346"/>
      <point x="263" y="383" type="curve" smooth="yes"/>
      <point x="263" y="403"/>
      <point x="256" y="422"/>
      <point x="251" y="435" type="curve" smooth="yes"/>
      <point x="246" y="447"/>
      <point x="252" y="462"/>
      <point x="265" y="467" type="curve" smooth="yes"/>
      <point x="277" y="472"/>
      <point x="292" y="466"/>
    </contour>
  </outline>
</glyph>
<glyph name="knKI" format="1">
  <advance width="683"/>
  <outline>
    <contour>
      <point x="84" y="313" type="curve" smooth="yes"/>
      <point x="597" y="313" type="line" smooth="yes"/>
      <point x="611" y="313"/>
      <point x="622" y="302"/>
      <point x="622" y="288" type="curve" smooth="yes"/>
      <point x="622" y="275"/>
      <point x="611" y="263"/>
      <point x="597" y="263" type="curve" smooth="yes"/>
      <point x="84" y="263" type="line" smooth="yes"/>
      <point x="71" y="263"/>
      <point x="59" y="275"/>
      <point x="59" y="288" type="curve" smooth="yes"/>
      <point x="59" y="302"/>
      <point x="71" y="313"/>
    </contour>
    <contour>
      <point x="303" y="261" type="curve" smooth="yes"/>
      <point x="241" y="252"/>
      <point x="200" y="208"/>
      <point x="200" y="157" type="curve" smooth="yes"/>
      <point x="200" y="103"/>
      <point x="241" y="50"/>
      <point x="341" y="50" type="curve" smooth="yes"/>
      <point x="443" y="50"/>
      <point x="484" y="103"/>
      <point x="484" y="157" type="curve" smooth="yes"/>
      <point x="484" y="208"/>
      <point x="442" y="252"/>
      <point x="380" y="261" type="curve" smooth="yes"/>
      <point x="367" y="263"/>
      <point x="357" y="276"/>
      <point x="359" y="290" type="curve" smooth="yes"/>
      <point x="361" y="303"/>
      <point x="374" y="313"/>
      <point x="388" y="311" type="curve" smooth="yes"/>
      <point x="478" y="298"/>
      <point x="534" y="230"/>
      <point x="534" y="157" type="curve" smooth="yes"/>
      <point x="534" y="85"/>
      <point x="491" y="0"/>
      <point x="341" y="0" type="curve" smooth="yes"/>
      <point x="195" y="0"/>
      <point x="150" y="83"/>
      <point x="150" y="157" type="curve" smooth="yes"/>
      <point x="150" y="230"/>
      <point x="205" y="296"/>
      <point x="295" y="311" type="curve" smooth="yes"/>
      <point x="308" y="313"/>
      <point x="322" y="303"/>
      <point x="324" y="290" type="curve" smooth="yes"/>
      <point x="326" y="277"/>
      <point x="316" y="263"/>
    </contour>
    <contour>
      <point x="258" y="312" type="curve" smooth="yes"/>
      <point x="375" y="329"/>
      <point x="430" y="392"/>
      <point x="430" y="474" type="curve" smooth="yes"/>
      <point x="430" y="530"/>
      <point x="391" y="591"/>
      <point x="333" y="591" type="curve" smooth="yes"/>
      <point x="293" y="591"/>
      <point x="267" y="564"/>
      <point x="267" y="531" type="curve" smooth="yes"/>
      <point x="267" y="499"/>
      <point x="294" y="475"/>
      <point x="327" y="475" type="curve" smooth="yes"/>
      <point x="366" y="475"/>
      <point x="394" y="494"/>
      <point x="425" y="534" type="curve" smooth="yes"/>
      <point x="433" y="545"/>
      <point x="450" y="547"/>
      <point x="460" y="539" type="curve" smooth="yes"/>
      <point x="471" y="531"/>
      <point x="473" y="514"/>
      <point x="465" y="504" type="curve" smooth="yes"/>
      <point x="422" y="448"/>
      <point x="380" y="425"/>
      <point x="327" y="425" type="curve" smooth="yes"/>
      <point x="264" y="425"/>
      <point x="217" y="471"/>
      <point x="217" y="531" type="curve" smooth="yes"/>
      <point x="217" y="588"/>
      <point x="261" y="641"/>
      <point x="333" y="641" type="curve" smooth="yes"/>
      <point x="415" y="641"/>
      <point x="480" y="560"/>
      <point x="480" y="474" type="curve" smooth="yes"/>
      <point x="480" y="370"/>
      <point x="417" y="285"/>
      <point x="266" y="262" type="curve" smooth="yes"/>
      <point x="252" y="260"/>
      <point x="239" y="270"/>
      <point x="237" y="283" type="curve" smooth="yes"/>
      <point x="235" y="297"/>
      <point x="245" y="310"/>
    </contour>
  </outline>
</glyph>
<glyph name="knLLLI" format="1">
  <advance width="771"/>
  <outline>
    <contour>
      <point x="183" y="467" type="curve" smooth="yes"/>
      <point x="250" y="480"/>
      <point x="285" y="527"/>
      <point x="285" y="579" type="curve" smooth="yes"/>
      <point x="285" y="642"/>
      <point x="250" y="696"/>
      <point x="196" y="696" type="curve" smooth="yes"/>
      <point x="159" y="696"/>
      <point x="136" y="669"/>
      <point x="136" y="639" type="curve" smooth="yes"/>
      <point x="136" y="608"/>
      <point x="163" y="585"/>
      <point x="194" y="585" type="curve" smooth="yes"/>
      <point x="230" y="585"/>
      <point x="258" y="612"/>
      <point x="280" y="642" type="curve" smooth="yes"/>
      <point x="288" y="653"/>
      <point x="304" y="655"/>
      <point x="315" y="647" type="curve" smooth="yes"/>
      <point x="326" y="639"/>
      <point x="328" y="623"/>
      <point x="320" y="612" type="curve" smooth="yes"/>
      <point x="288" y="568"/>
      <point x="244" y="535"/>
      <point x="194" y="535" type="curve" smooth="yes"/>
      <point x="133" y="535"/>
      <point x="86" y="580"/>
      <point x="86" y="639" type="curve" smooth="yes"/>
      <point x="86" y="695"/>
      <point x="127" y="746"/>
      <point x="196" y="746" type="curve" smooth="yes"/>
      <point x="272" y="746"/>
      <point x="335" y="678"/>
      <point x="335" y="579" type="curve" smooth="yes"/>
      <point x="335" y="507"/>
      <point x="288" y="436"/>
      <point x="193" y="417" type="curve" smooth="yes"/>
      <point x="180" y="415"/>
      <point x="166" y="424"/>
      <point x="163" y="437" type="curve" smooth="yes"/>
      <point x="161" y="450"/>
      <point x="170" y="464"/>
    </contour>
    <component base="knLLLA"/>
    <component base="knLLLA"/>
  </outline>
</glyph>
<glyph name="knLLO" format="1">
  <advance width="1291"/>
  <outline>
    <contour>
      <point x="578" y="220" type="curve" smooth="yes"/>
      <point x="624" y="132"/>
      <point x="679" y="58"/>
      <point x="757" y="58" type="curve" smooth="yes"/>
      <point x="808" y="58"/>
      <point x="833" y="89"/>
      <point x="833" y="135" type="curve" smooth="yes"/>
      <point x="833" y="188"/>
      <point x="808" y="238"/>
      <point x="808" y="298" type="curve" smooth="yes"/>
      <point x="808" y="377"/>
      <point x="865" y="468"/>
      <point x="975" y="468" type="curve" smooth="yes"/>
      <point x="1085" y="468"/>
      <point x="1226" y="366"/>
      <point x="1226" y="177" type="curve" smooth="yes"/>
      <point x="1226" y="63"/>
      <point x="1165" y="4"/>
      <point x="1091" y="4" type="curve" smooth="yes"/>
      <point x="1016" y="4"/>
      <point x="974" y="58"/>
      <point x="973" y="116" type="curve" smooth="yes"/>
      <point x="972" y="182"/>
      <point x="1020" y="248"/>
      <point x="1112" y="248" type="curve" smooth="yes"/>
      <point x="1144" y="248"/>
      <point x="1176" y="244"/>
      <point x="1204" y="235" type="curve" smooth="yes"/>
      <point x="1216" y="231"/>
      <point x="1224" y="216"/>
      <point x="1220" y="203" type="curve" smooth="yes"/>
      <point x="1216" y="191"/>
      <point x="1201" y="183"/>
      <point x="1188" y="187" type="curve" smooth="yes"/>
      <point x="1166" y="194"/>
      <point x="1138" y="198"/>
      <point x="1112" y="198" type="curve" smooth="yes"/>
      <point x="1056" y="198"/>
      <point x="1022" y="160"/>
      <point x="1023" y="118" type="curve" smooth="yes"/>
      <point x="1024" y="84"/>
      <point x="1048" y="54"/>
      <point x="1091" y="54" type="curve" smooth="yes"/>
      <point x="1143" y="54"/>
      <point x="1176" y="105"/>
      <point x="1176" y="177" type="curve" smooth="yes"/>
      <point x="1176" y="328"/>
      <point x="1067" y="418"/>
      <point x="975" y="418" type="curve" smooth="yes"/>
      <point x="897" y="418"/>
      <point x="858" y="353"/>
      <point x="858" y="298" type="curve" smooth="yes"/>
      <point x="858" y="238"/>
      <point x="883" y="188"/>
      <point x="883" y="135" type="curve" smooth="yes"/>
      <point x="883" y="59"/>
      <point x="842" y="8"/>
      <point x="757" y="8" type="curve" smooth="yes"/>
      <point x="663" y="8"/>
      <point x="592" y="88"/>
      <point x="534" y="196" type="curve" smooth="yes"/>
      <point x="528" y="208"/>
      <point x="532" y="224"/>
      <point x="544" y="230" type="curve" smooth="yes"/>
      <point x="556" y="236"/>
      <point x="572" y="232"/>
    </contour>
    <component base="knLLE"/>
    <component base="knLLE"/>
  </outline>
</glyph>
<glyph name="knME" format="1">
  <advance width="1038"/>
  <outline>
    <contour>
      <point x="118" y="468" type="curve" smooth="yes"/>
      <point x="483" y="468" type="line" smooth="yes"/>
      <point x="497" y="468"/>
      <point x="508" y="457"/>
      <point x="508" y="443" type="curve" smooth="yes"/>
      <point x="508" y="430"/>
      <point x="497" y="418"/>
      <point x="483" y="418" type="curve" smooth="yes"/>
      <point x="118" y="418" type="line" smooth="yes"/>
      <point x="105" y="418"/>
      <point x="93" y="430"/>
      <point x="93" y="443" type="curve" smooth="yes"/>
      <point x="93" y="457"/>
      <point x="105" y="468"/>
    </contour>
    <contour>
      <point x="193" y="201" type="curve" smooth="yes"/>
      <point x="146" y="195"/>
      <point x="118" y="165"/>
      <point x="118" y="128" type="curve" smooth="yes"/>
      <point x="118" y="87"/>
      <point x="154" y="58"/>
      <point x="204" y="58" type="curve" smooth="yes"/>
      <point x="270" y="58"/>
      <point x="307" y="86"/>
      <point x="339" y="146" type="curve" smooth="yes"/>
      <point x="343" y="153"/>
      <point x="353" y="159"/>
      <point x="361" y="159" type="curve" smooth="yes"/>
      <point x="366" y="159" type="line" smooth="yes"/>
      <point x="374" y="159"/>
      <point x="383" y="154"/>
      <point x="387" y="148" type="curve" smooth="yes"/>
      <point x="423" y="92"/>
      <point x="459" y="58"/>
      <point x="518" y="58" type="curve" smooth="yes"/>
      <point x="571" y="58"/>
      <point x="613" y="101"/>
      <point x="613" y="164" type="curve" smooth="yes"/>
      <point x="613" y="246"/>
      <point x="551" y="343"/>
      <point x="417" y="418" type="curve" smooth="yes"/>
      <point x="405" y="425"/>
      <point x="401" y="440"/>
      <point x="407" y="452" type="curve" smooth="yes"/>
      <point x="414" y="464"/>
      <point x="429" y="468"/>
      <point x="441" y="462" type="curve" smooth="yes"/>
      <point x="599" y="373"/>
      <point x="663" y="258"/>
      <point x="663" y="164" type="curve" smooth="yes"/>
      <point x="663" y="67"/>
      <point x="597" y="8"/>
      <point x="518" y="8" type="curve" smooth="yes"/>
      <point x="441" y="8"/>
      <point x="393" y="46"/>
      <point x="345" y="120" type="curve"/>
      <point x="366" y="109" type="line"/>
      <point x="361" y="109" type="line"/>
      <point x="383" y="122" type="line"/>
      <point x="341" y="44"/>
      <point x="290" y="8"/>
      <point x="204" y="8" type="curve" smooth="yes"/>
      <point x="118" y="8"/>
      <point x="68" y="63"/>
      <point x="68" y="128" type="curve" smooth="yes"/>
      <point x="68" y="187"/>
      <point x="108" y="239"/>
      <point x="185" y="251" type="curve" smooth="yes"/>
      <point x="199" y="253"/>
      <point x="212" y="243"/>
      <point x="214" y="230" type="curve" smooth="yes"/>
      <point x="216" y="216"/>
      <point x="206" y="203"/>
    </contour>
    <contour>
      <point x="658" y="149" type="curve" smooth="yes"/>
      <point x="701" y="83"/>
      <point x="746" y="58"/>
      <point x="800" y="58" type="curve" smooth="yes"/>
      <point x="876" y="58"/>
      <point x="914" y="108"/>
      <point x="914" y="179" type="curve" smooth="yes"/>
      <point x="914" y="255"/>
      <point x="870" y="344"/>
      <point x="815" y="405" type="curve" smooth="yes"/>
      <point x="805" y="415"/>
      <point x="806" y="431"/>
      <point x="816" y="440" type="curve" smooth="yes"/>
      <point x="826" y="450"/>
      <point x="842" y="449"/>
      <point x="851" y="439" type="curve" smooth="yes"/>
      <point x="916" y="368"/>
      <point x="964" y="265"/>
      <point x="964" y="179" type="curve" smooth="yes"/>
      <point x="964" y="78"/>
      <point x="908" y="8"/>
      <point x="800" y="8" type="curve" smooth="yes"/>
      <point x="732" y="8"/>
      <point x="673" y="37"/>
      <point x="616" y="121" type="curve" smooth="yes"/>
      <point x="609" y="132"/>
      <point x="612" y="148"/>
      <point x="623" y="156" type="curve" smooth="yes"/>
      <point x="634" y="163"/>
      <point x="650" y="160"/>
    </contour>
    <component base="knsignE" xOffset="679"/>
    <component base="knsignE" xOffset="679"/>
  </outline>
</glyph>
<glyph name="knNG" format="1">
  <advance width="1047"/>
  <outline>
    <contour>
      <point x="599" y="468" type="curve" smooth="yes"/>
      <point x="858" y="468" type="line" smooth="yes"/>
      <point x="968" y="468"/>
      <point x="1008" y="401"/>
      <point x="1008" y="343" type="curve" smooth="yes"/>
      <point x="1008" y="273"/>
      <point x="963" y="231"/>
      <point x="897" y="231" type="curve" smooth="yes"/>
      <point x="834" y="231"/>
      <point x="778" y="279"/>
      <point x="778" y="355" type="curve" smooth="yes"/>
      <point x="778" y="422"/>
      <point x="803" y="510"/>
      <point x="939" y="584" type="curve" smooth="yes"/>
      <point x="951" y="590"/>
      <point x="966" y="586"/>
      <point x="973" y="574" type="curve" smooth="yes"/>
      <point x="979" y="562"/>
      <point x="975" y="547"/>
      <point x="963" y="540" type="curve" smooth="yes"/>
      <point x="853" y="480"/>
      <point x="828" y="410"/>
      <point x="828" y="355" type="curve" smooth="yes"/>
      <point x="828" y="311"/>
      <point x="860" y="281"/>
      <point x="897" y="281" type="curve" smooth="yes"/>
      <point x="933" y="281"/>
      <point x="958" y="305"/>
      <point x="958" y="343" type="curve" smooth="yes"/>
      <point x="958" y="381"/>
      <point x="924" y="418"/>
      <point x="858" y="418" type="curve" smooth="yes"/>
      <point x="599" y="418" type="line" smooth="yes"/>
      <point x="586" y="418"/>
      <point x="574" y="430"/>
      <point x="574" y="443" type="curve" smooth="yes"/>
      <point x="574" y="457"/>
      <point x="586" y="468"/>
    </contour>
    <component base="knNGA"/>
    <component base="knNGA"/>
  </outline>
</glyph>
<glyph name="knNI" format="1">
  <advance width="658"/>
  <outline>
    <contour>
      <point x="77" y="23" type="curve" smooth="yes"/>
      <point x="77" y="109"/>
      <point x="94" y="175"/>
      <point x="125" y="206" type="curve" smooth="yes"/>
      <point x="144" y="225"/>
      <point x="171" y="240"/>
      <point x="207" y="240" type="curve" smooth="yes"/>
      <point x="252" y="240"/>
      <point x="303" y="217"/>
      <point x="346" y="145" type="curve" smooth="yes"/>
      <point x="377" y="94"/>
      <point x="399" y="58"/>
      <point x="450" y="58" type="curve" smooth="yes"/>
      <point x="494" y="58"/>
      <point x="537" y="109"/>
      <point x="537" y="188" type="curve" smooth="yes"/>
      <point x="537" y="315"/>
      <point x="481" y="437"/>
      <point x="390" y="527" type="curve" smooth="yes"/>
      <point x="339" y="579"/>
      <point x="308" y="596"/>
      <point x="270" y="596" type="curve" smooth="yes"/>
      <point x="228" y="596"/>
      <point x="206" y="566"/>
      <point x="206" y="539" type="curve" smooth="yes"/>
      <point x="206" y="510"/>
      <point x="229" y="485"/>
      <point x="268" y="485" type="curve" smooth="yes"/>
      <point x="312" y="485"/>
      <point x="347" y="515"/>
      <point x="371" y="553" type="curve" smooth="yes"/>
      <point x="378" y="564"/>
      <point x="394" y="567"/>
      <point x="406" y="560" type="curve" smooth="yes"/>
      <point x="417" y="553"/>
      <point x="420" y="537"/>
      <point x="413" y="525" type="curve" smooth="yes"/>
      <point x="379" y="473"/>
      <point x="328" y="435"/>
      <point x="268" y="435" type="curve" smooth="yes"/>
      <point x="193" y="435"/>
      <point x="156" y="486"/>
      <point x="156" y="539" type="curve" smooth="yes"/>
      <point x="156" y="588"/>
      <point x="192" y="646"/>
      <point x="270" y="646" type="curve" smooth="yes"/>
      <point x="318" y="646"/>
      <point x="359" y="629"/>
      <point x="426" y="563" type="curve" smooth="yes"/>
      <point x="525" y="463"/>
      <point x="587" y="329"/>
      <point x="587" y="188" type="curve" smooth="yes"/>
      <point x="587" y="63"/>
      <point x="510" y="8"/>
      <point x="450" y="8" type="curve" smooth="yes"/>
      <point x="383" y="8"/>
      <point x="347" y="48"/>
      <point x="304" y="119" type="curve" smooth="yes"/>
      <point x="273" y="169"/>
      <point x="240" y="190"/>
      <point x="207" y="190" type="curve" smooth="yes"/>
      <point x="187" y="190"/>
      <point x="172" y="181"/>
      <point x="161" y="170" type="curve" smooth="yes"/>
      <point x="136" y="145"/>
      <point x="127" y="91"/>
      <point x="127" y="23" type="curve" smooth="yes"/>
      <point x="127" y="9"/>
      <point x="115" y="-2"/>
      <point x="102" y="-2" type="curve" smooth="yes"/>
      <point x="88" y="-2"/>
      <point x="77" y="10"/>
    </contour>
  </outline>
</glyph>
<glyph name="knNYO" format="1">
  <advance width="1492"/>
  <outline>
    <contour>
      <point x="551" y="-21" type="curve" smooth="yes"/>
      <point x="506" y="111"/>
      <point x="425" y="187"/>
      <point x="339" y="187" type="curve" smooth="yes"/>
      <point x="290" y="187"/>
      <point x="259" y="160"/>
      <point x="259" y="132" type="curve" smooth="yes"/>
      <point x="259" y="103"/>
      <point x="290" y="78"/>
      <point x="340" y="78" type="curve" smooth="yes"/>
      <point x="491" y="78"/>
      <point x="603" y="224"/>
      <point x="603" y="322" type="curve" smooth="yes"/>
      <point x="603" y="384"/>
      <point x="567" y="424"/>
      <point x="512" y="424" type="curve" smooth="yes"/>
      <point x="453" y="424"/>
      <point x="419" y="382"/>
      <point x="386" y="324" type="curve" smooth="yes"/>
      <point x="382" y="317"/>
      <point x="372" y="311"/>
      <point x="364" y="311" type="curve" smooth="yes"/>
      <point x="359" y="311" type="line" smooth="yes"/>
      <point x="351" y="311"/>
      <point x="341" y="317"/>
      <point x="337" y="324" type="curve" smooth="yes"/>
      <point x="305" y="382"/>
      <point x="266" y="425"/>
      <point x="203" y="425" type="curve" smooth="yes"/>
      <point x="149" y="425"/>
      <point x="117" y="385"/>
      <point x="117" y="338" type="curve" smooth="yes"/>
      <point x="117" y="318"/>
      <point x="123" y="298"/>
      <point x="136" y="277" type="curve" smooth="yes"/>
      <point x="143" y="266"/>
      <point x="140" y="250"/>
      <point x="128" y="243" type="curve" smooth="yes"/>
      <point x="117" y="236"/>
      <point x="101" y="239"/>
      <point x="94" y="251" type="curve" smooth="yes"/>
      <point x="75" y="282"/>
      <point x="67" y="310"/>
      <point x="67" y="338" type="curve" smooth="yes"/>
      <point x="67" y="413"/>
      <point x="119" y="475"/>
      <point x="203" y="475" type="curve" smooth="yes"/>
      <point x="284" y="475"/>
      <point x="339" y="424"/>
      <point x="381" y="348" type="curve"/>
      <point x="359" y="361" type="line"/>
      <point x="364" y="361" type="line"/>
      <point x="342" y="348" type="line"/>
      <point x="387" y="426"/>
      <point x="435" y="474"/>
      <point x="512" y="474" type="curve" smooth="yes"/>
      <point x="595" y="474"/>
      <point x="653" y="418"/>
      <point x="653" y="322" type="curve" smooth="yes"/>
      <point x="653" y="206"/>
      <point x="523" y="28"/>
      <point x="340" y="28" type="curve" smooth="yes"/>
      <point x="244" y="28"/>
      <point x="209" y="85"/>
      <point x="209" y="132" type="curve" smooth="yes"/>
      <point x="209" y="178"/>
      <point x="245" y="237"/>
      <point x="339" y="237" type="curve" smooth="yes"/>
      <point x="441" y="237"/>
      <point x="544" y="157"/>
      <point x="599" y="-5" type="curve" smooth="yes"/>
      <point x="603" y="-18"/>
      <point x="596" y="-32"/>
      <point x="583" y="-37" type="curve" smooth="yes"/>
      <point x="570" y="-41"/>
      <point x="556" y="-34"/>
    </contour>
    <contour>
      <point x="607" y="368" type="curve" smooth="yes"/>
      <point x="642" y="427"/>
      <point x="689" y="468"/>
      <point x="752" y="468" type="curve" smooth="yes"/>
      <point x="837" y="468"/>
      <point x="867" y="405"/>
      <point x="867" y="356" type="curve" smooth="yes"/>
      <point x="867" y="321"/>
      <point x="845" y="271"/>
      <point x="845" y="206" type="curve" smooth="yes"/>
      <point x="845" y="126"/>
      <point x="898" y="58"/>
      <point x="958" y="58" type="curve" smooth="yes"/>
      <point x="1009" y="58"/>
      <point x="1034" y="89"/>
      <point x="1034" y="135" type="curve" smooth="yes"/>
      <point x="1034" y="188"/>
      <point x="1009" y="238"/>
      <point x="1009" y="298" type="curve" smooth="yes"/>
      <point x="1009" y="377"/>
      <point x="1066" y="468"/>
      <point x="1176" y="468" type="curve" smooth="yes"/>
      <point x="1286" y="468"/>
      <point x="1427" y="366"/>
      <point x="1427" y="177" type="curve" smooth="yes"/>
      <point x="1427" y="63"/>
      <point x="1366" y="4"/>
      <point x="1292" y="4" type="curve" smooth="yes"/>
      <point x="1217" y="4"/>
      <point x="1175" y="58"/>
      <point x="1174" y="116" type="curve" smooth="yes"/>
      <point x="1173" y="182"/>
      <point x="1221" y="248"/>
      <point x="1313" y="248" type="curve" smooth="yes"/>
      <point x="1345" y="248"/>
      <point x="1377" y="244"/>
      <point x="1405" y="235" type="curve" smooth="yes"/>
      <point x="1417" y="231"/>
      <point x="1425" y="216"/>
      <point x="1421" y="203" type="curve" smooth="yes"/>
      <point x="1417" y="191"/>
      <point x="1402" y="183"/>
      <point x="1389" y="187" type="curve" smooth="yes"/>
      <point x="1367" y="194"/>
      <point x="1339" y="198"/>
      <point x="1313" y="198" type="curve" smooth="yes"/>
      <point x="1257" y="198"/>
      <point x="1223" y="160"/>
      <point x="1224" y="118" type="curve" smooth="yes"/>
      <point x="1225" y="84"/>
      <point x="1249" y="54"/>
      <point x="1292" y="54" type="curve" smooth="yes"/>
      <point x="1344" y="54"/>
      <point x="1377" y="105"/>
      <point x="1377" y="177" type="curve" smooth="yes"/>
      <point x="1377" y="328"/>
      <point x="1268" y="418"/>
      <point x="1176" y="418" type="curve" smooth="yes"/>
      <point x="1098" y="418"/>
      <point x="1059" y="353"/>
      <point x="1059" y="298" type="curve" smooth="yes"/>
      <point x="1059" y="238"/>
      <point x="1084" y="188"/>
      <point x="1084" y="135" type="curve" smooth="yes"/>
      <point x="1084" y="59"/>
      <point x="1043" y="8"/>
      <point x="958" y="8" type="curve" smooth="yes"/>
      <point x="878" y="8"/>
      <point x="795" y="90"/>
      <point x="795" y="206" type="curve" smooth="yes"/>
      <point x="795" y="271"/>
      <point x="817" y="321"/>
      <point x="817" y="356" type="curve" smooth="yes"/>
      <point x="817" y="383"/>
      <point x="799" y="418"/>
      <point x="752" y="418" type="curve" smooth="yes"/>
      <point x="705" y="418"/>
      <point x="674" y="383"/>
      <point x="649" y="342" type="curve" smooth="yes"/>
      <point x="642" y="331"/>
      <point x="627" y="327"/>
      <point x="615" y="334" type="curve" smooth="yes"/>
      <point x="604" y="341"/>
      <point x="600" y="356"/>
    </contour>
    <component base="knsignE" xOffset="955"/>
    <component base="knsignE" xOffset="955"/>
  </outline>
</glyph>
<glyph name="knSHA.base" format="1">
  <advance width="634"/>
  <outline>
    <contour>
      <point x="89" y="468" type="curve" smooth="yes"/>
      <point x="438" y="468" type="line" smooth="yes"/>
      <point x="452" y="468"/>
      <point x="463" y="457"/>
      <point x="463" y="443" type="curve" smooth="yes"/>
      <point x="463" y="430"/>
      <point x="452" y="418"/>
      <point x="438" y="418" type="curve" smooth="yes"/>
      <point x="89" y="418" type="line" smooth="yes"/>
      <point x="76" y="418"/>
      <point x="64" y="430"/>
      <point x="64" y="443" type="curve" smooth="yes"/>
      <point x="64" y="457"/>
      <point x="76" y="468"/>
    </contour>
    <contour>
      <point x="156" y="365" type="curve" smooth="yes"/>
      <point x="181" y="421"/>
      <point x="225" y="454"/>
      <point x="274" y="454" type="curve" smooth="yes"/>
      <point x="333" y="454"/>
      <point x="387" y="409"/>
      <point x="387" y="341" type="curve" smooth="yes"/>
      <point x="387" y="274"/>
      <point x="349" y="221"/>
      <point x="259" y="211" type="curve" smooth="yes"/>
      <point x="184" y="203"/>
      <point x="158" y="193"/>
      <point x="143" y="178" type="curve" smooth="yes"/>
      <point x="132" y="168"/>
      <point x="127" y="153"/>
      <point x="127" y="136" type="curve" smooth="yes"/>
      <point x="127" y="95"/>
      <point x="181" y="58"/>
      <point x="294" y="58" type="curve" smooth="yes"/>
      <point x="386" y="58"/>
      <point x="449" y="90"/>
      <point x="472" y="114" type="curve" smooth="yes"/>
      <point x="496" y="137"/>
      <point x="513" y="168"/>
      <point x="513" y="207" type="curve" smooth="yes"/>
      <point x="513" y="281"/>
      <point x="460" y="370"/>
      <point x="345" y="420" type="curve" smooth="yes"/>
      <point x="333" y="426"/>
      <point x="327" y="441"/>
      <point x="332" y="453" type="curve" smooth="yes"/>
      <point x="338" y="465"/>
      <point x="353" y="471"/>
      <point x="365" y="466" type="curve" smooth="yes"/>
      <point x="504" y="404"/>
      <point x="563" y="295"/>
      <point x="563" y="207" type="curve" smooth="yes"/>
      <point x="563" y="154"/>
      <point x="540" y="111"/>
      <point x="508" y="78" type="curve" smooth="yes"/>
      <point x="479" y="50"/>
      <point x="406" y="8"/>
      <point x="294" y="8" type="curve" smooth="yes"/>
      <point x="109" y="8"/>
      <point x="77" y="83"/>
      <point x="77" y="136" type="curve" smooth="yes"/>
      <point x="77" y="169"/>
      <point x="88" y="194"/>
      <point x="107" y="214" type="curve" smooth="yes"/>
      <point x="126" y="233"/>
      <point x="156" y="251"/>
      <point x="253" y="261" type="curve" smooth="yes"/>
      <point x="309" y="267"/>
      <point x="337" y="298"/>
      <point x="337" y="341" type="curve" smooth="yes"/>
      <point x="337" y="379"/>
      <point x="307" y="404"/>
      <point x="274" y="404" type="curve" smooth="yes"/>
      <point x="243" y="404"/>
      <point x="217" y="379"/>
      <point x="202" y="345" type="curve" smooth="yes"/>
      <point x="196" y="333"/>
      <point x="181" y="327"/>
      <point x="169" y="332" type="curve" smooth="yes"/>
      <point x="157" y="338"/>
      <point x="151" y="353"/>
    </contour>
  </outline>
</glyph>
<glyph name="knSHAc2" format="1">
  <advance width="115"/>
  <outline>
    <contour>
      <point x="76" y="61" type="curve" smooth="yes"/>
      <point x="94" y="4"/>
      <point x="101" y="-73"/>
      <point x="101" y="-116" type="curve" smooth="yes"/>
      <point x="101" y="-188"/>
      <point x="79" y="-231"/>
      <point x="-28" y="-249" type="curve" smooth="yes"/>
      <point x="-71" y="-256"/>
      <point x="-96" y="-268"/>
      <point x="-96" y="-290" type="curve" smooth="yes"/>
      <point x="-96" y="-314"/>
      <point x="-59" y="-326"/>
      <point x="-13" y="-326" type="curve" smooth="yes"/>
      <point x="73" y="-326"/>
      <point x="145" y="-297"/>
      <point x="145" y="-227" type="curve" smooth="yes"/>
      <point x="145" y="-173"/>
      <point x="82" y="-134"/>
      <point x="24" y="-134" type="curve" smooth="yes"/>
      <point x="-10" y="-134"/>
      <point x="-45" y="-140"/>
      <point x="-72" y="-147" type="curve" smooth="yes"/>
      <point x="-84" y="-150"/>
      <point x="-97" y="-143"/>
      <point x="-100" y="-131" type="curve" smooth="yes"/>
      <point x="-103" y="-119"/>
      <point x="-96" y="-106"/>
      <point x="-84" y="-103" type="curve" smooth="yes"/>
      <point x="-53" y="-94"/>
      <point x="-14" y="-88"/>
      <point x="24" y="-88" type="curve" smooth="yes"/>
      <point x="110" y="-88"/>
      <point x="191" y="-153"/>
      <point x="191" y="-227" type="curve" smooth="yes"/>
      <point x="191" y="-317"/>
      <point x="113" y="-372"/>
      <point x="-13" y="-372" type="curve" smooth="yes"/>
      <point x="-119" y="-372"/>
      <point x="-142" y="-328"/>
      <point x="-142" y="-290" type="curve" smooth="yes"/>
      <point x="-142" y="-254"/>
      <point x="-125" y="-218"/>
      <point x="-36" y="-203" type="curve" smooth="yes"/>
      <point x="35" y="-191"/>
      <point x="55" y="-166"/>
      <point x="55" y="-116" type="curve"/>
      <point x="55" y="-77"/>
      <point x="48" y="-6"/>
      <point x="32" y="47" type="curve" smooth="yes"/>
      <point x="28" y="59"/>
      <point x="35" y="72"/>
      <point x="47" y="76" type="curve" smooth="yes"/>
      <point x="59" y="80"/>
      <point x="72" y="73"/>
    </contour>
  </outline>
</glyph>
<glyph name="knSHI" format="1">
  <advance width="645"/>
  <outline>
    <contour>
      <point x="156" y="345" type="curve" smooth="yes"/>
      <point x="180" y="399"/>
      <point x="220" y="434"/>
      <point x="301" y="434" type="curve" smooth="yes"/>
      <point x="459" y="434"/>
      <point x="563" y="316"/>
      <point x="563" y="207" type="curve" smooth="yes"/>
      <point x="563" y="154"/>
      <point x="540" y="111"/>
      <point x="508" y="78" type="curve" smooth="yes"/>
      <point x="479" y="50"/>
      <point x="406" y="8"/>
      <point x="294" y="8" type="curve" smooth="yes"/>
      <point x="109" y="8"/>
      <point x="77" y="83"/>
      <point x="77" y="136" type="curve" smooth="yes"/>
      <point x="77" y="169"/>
      <point x="88" y="194"/>
      <point x="107" y="214" type="curve" smooth="yes"/>
      <point x="126" y="233"/>
      <point x="156" y="251"/>
      <point x="253" y="261" type="curve" smooth="yes"/>
      <point x="314" y="268"/>
      <point x="351" y="309"/>
      <point x="351" y="387" type="curve" smooth="yes"/>
      <point x="351" y="460"/>
      <point x="325" y="532"/>
      <point x="270" y="586" type="curve" smooth="yes"/>
      <point x="243" y="613"/>
      <point x="211" y="628"/>
      <point x="176" y="628" type="curve" smooth="yes"/>
      <point x="134" y="628"/>
      <point x="112" y="598"/>
      <point x="112" y="571" type="curve" smooth="yes"/>
      <point x="112" y="542"/>
      <point x="135" y="517"/>
      <point x="174" y="517" type="curve" smooth="yes"/>
      <point x="218" y="517"/>
      <point x="253" y="547"/>
      <point x="277" y="585" type="curve" smooth="yes"/>
      <point x="284" y="596"/>
      <point x="300" y="599"/>
      <point x="312" y="592" type="curve" smooth="yes"/>
      <point x="323" y="585"/>
      <point x="326" y="569"/>
      <point x="319" y="557" type="curve" smooth="yes"/>
      <point x="285" y="505"/>
      <point x="234" y="467"/>
      <point x="174" y="467" type="curve" smooth="yes"/>
      <point x="99" y="467"/>
      <point x="62" y="518"/>
      <point x="62" y="571" type="curve"/>
      <point x="62" y="620"/>
      <point x="98" y="678"/>
      <point x="176" y="678" type="curve" smooth="yes"/>
      <point x="223" y="678"/>
      <point x="269" y="659"/>
      <point x="306" y="622" type="curve" smooth="yes"/>
      <point x="369" y="558"/>
      <point x="401" y="474"/>
      <point x="401" y="387" type="curve" smooth="yes"/>
      <point x="401" y="273"/>
      <point x="344" y="220"/>
      <point x="259" y="211" type="curve" smooth="yes"/>
      <point x="184" y="203"/>
      <point x="158" y="193"/>
      <point x="143" y="178" type="curve" smooth="yes"/>
      <point x="132" y="168"/>
      <point x="127" y="153"/>
      <point x="127" y="136" type="curve" smooth="yes"/>
      <point x="127" y="95"/>
      <point x="181" y="58"/>
      <point x="294" y="58" type="curve" smooth="yes"/>
      <point x="386" y="58"/>
      <point x="449" y="90"/>
      <point x="472" y="114" type="curve" smooth="yes"/>
      <point x="496" y="137"/>
      <point x="513" y="168"/>
      <point x="513" y="207" type="curve" smooth="yes"/>
      <point x="513" y="296"/>
      <point x="425" y="384"/>
      <point x="301" y="384" type="curve" smooth="yes"/>
      <point x="246" y="384"/>
      <point x="218" y="361"/>
      <point x="202" y="325" type="curve" smooth="yes"/>
      <point x="196" y="313"/>
      <point x="181" y="307"/>
      <point x="169" y="312" type="curve" smooth="yes"/>
      <point x="157" y="318"/>
      <point x="151" y="333"/>
    </contour>
  </outline>
</glyph>
<glyph name="knTAc2" format="1">
  <advance width="0"/>
  <outline>
    <contour>
      <point x="-150" y="-296" type="curve" smooth="yes"/>
      <point x="-155" y="-280"/>
      <point x="-162" y="-253"/>
      <point x="-162" y="-226" type="curve" smooth="yes"/>
      <point x="-162" y="-157"/>
      <point x="-114" y="-107"/>
      <point x="-50" y="-107" type="curve" smooth="yes"/>
      <point x="16" y="-107"/>
      <point x="55" y="-154"/>
      <point x="55" y="-208" type="curve"/>
      <point x="55" y="-264"/>
      <point x="25" y="-318"/>
      <point x="-94" y="-318" type="curve" smooth="yes"/>
      <point x="-398" y="-318" type="line" smooth="yes"/>
      <point x="-410" y="-318"/>
      <point x="-421" y="-307"/>
      <point x="-421" y="-295" type="curve" smooth="yes"/>
      <point x="-421" y="-283"/>
      <point x="-410" y="-272"/>
      <point x="-398" y="-272" type="curve" smooth="yes"/>
      <point x="-94" y="-272" type="line" smooth="yes"/>
      <point x="-25" y="-272"/>
      <point x="9" y="-246"/>
      <point x="9" y="-208" type="curve" smooth="yes"/>
      <point x="9" y="-178"/>
      <point x="-14" y="-153"/>
      <point x="-50" y="-153" type="curve" smooth="yes"/>
      <point x="-90" y="-153"/>
      <point x="-116" y="-185"/>
      <point x="-116" y="-226" type="curve" smooth="yes"/>
      <point x="-116" y="-249"/>
      <point x="-109" y="-270"/>
      <point x="-106" y="-284" type="curve" smooth="yes"/>
      <point x="-103" y="-296"/>
      <point x="-110" y="-309"/>
      <point x="-122" y="-312" type="curve" smooth="yes"/>
      <point x="-134" y="-315"/>
      <point x="-147" y="-308"/>
    </contour>
  </outline>
</glyph>
<glyph name="knTI" format="1">
  <advance width="617"/>
  <outline>
    <contour>
      <point x="127" y="90" type="curve" smooth="yes"/>
      <point x="174" y="67"/>
      <point x="247" y="49"/>
      <point x="332" y="49" type="curve" smooth="yes"/>
      <point x="450" y="49"/>
      <point x="527" y="99"/>
      <point x="527" y="173" type="curve" smooth="yes"/>
      <point x="527" y="246"/>
      <point x="453" y="301"/>
      <point x="327" y="301" type="curve" smooth="yes"/>
      <point x="270" y="301"/>
      <point x="225" y="282"/>
      <point x="225" y="251" type="curve" smooth="yes"/>
      <point x="225" y="223"/>
      <point x="256" y="206"/>
      <point x="301" y="205" type="curve" smooth="yes"/>
      <point x="374" y="204"/>
      <point x="421" y="244"/>
      <point x="421" y="327" type="curve" smooth="yes"/>
      <point x="421" y="447"/>
      <point x="354" y="596"/>
      <point x="239" y="596" type="curve" smooth="yes"/>
      <point x="197" y="596"/>
      <point x="175" y="566"/>
      <point x="175" y="539" type="curve" smooth="yes"/>
      <point x="175" y="510"/>
      <point x="198" y="485"/>
      <point x="237" y="485" type="curve" smooth="yes"/>
      <point x="281" y="485"/>
      <point x="316" y="515"/>
      <point x="340" y="553" type="curve" smooth="yes"/>
      <point x="347" y="564"/>
      <point x="363" y="567"/>
      <point x="375" y="560" type="curve" smooth="yes"/>
      <point x="386" y="553"/>
      <point x="389" y="537"/>
      <point x="382" y="525" type="curve" smooth="yes"/>
      <point x="348" y="473"/>
      <point x="297" y="435"/>
      <point x="237" y="435" type="curve" smooth="yes"/>
      <point x="162" y="435"/>
      <point x="125" y="486"/>
      <point x="125" y="539" type="curve" smooth="yes"/>
      <point x="125" y="588"/>
      <point x="161" y="646"/>
      <point x="239" y="646" type="curve" smooth="yes"/>
      <point x="376" y="646"/>
      <point x="471" y="481"/>
      <point x="471" y="327" type="curve" smooth="yes"/>
      <point x="471" y="208"/>
      <point x="404" y="154"/>
      <point x="301" y="155" type="curve" smooth="yes"/>
      <point x="206" y="156"/>
      <point x="175" y="205"/>
      <point x="175" y="251" type="curve" smooth="yes"/>
      <point x="175" y="296"/>
      <point x="212" y="351"/>
      <point x="327" y="351" type="curve" smooth="yes"/>
      <point x="503" y="351"/>
      <point x="577" y="264"/>
      <point x="577" y="173" type="curve" smooth="yes"/>
      <point x="577" y="81"/>
      <point x="498" y="-1"/>
      <point x="332" y="-1" type="curve" smooth="yes"/>
      <point x="237" y="-1"/>
      <point x="156" y="19"/>
      <point x="105" y="46" type="curve" smooth="yes"/>
      <point x="93" y="52"/>
      <point x="88" y="67"/>
      <point x="94" y="79" type="curve" smooth="yes"/>
      <point x="100" y="91"/>
      <point x="115" y="96"/>
    </contour>
  </outline>
</glyph>
<glyph name="knTTI" format="1">
  <advance width="763"/>
  <outline>
    <contour>
      <point x="142" y="258" type="curve" smooth="yes"/>
      <point x="163" y="227"/>
      <point x="195" y="212"/>
      <point x="225" y="212" type="curve" smooth="yes"/>
      <point x="261" y="212"/>
      <point x="285" y="233"/>
      <point x="285" y="266" type="curve" smooth="yes"/>
      <point x="285" y="299"/>
      <point x="257" y="320"/>
      <point x="223" y="320" type="curve" smooth="yes"/>
      <point x="164" y="320"/>
      <point x="127" y="250"/>
      <point x="127" y="184" type="curve" smooth="yes"/>
      <point x="127" y="110"/>
      <point x="172" y="58"/>
      <point x="238" y="58" type="curve" smooth="yes"/>
      <point x="299" y="58"/>
      <point x="338" y="92"/>
      <point x="366" y="145" type="curve" smooth="yes"/>
      <point x="370" y="153"/>
      <point x="380" y="159"/>
      <point x="388" y="159" type="curve" smooth="yes"/>
      <point x="393" y="159" type="line" smooth="yes"/>
      <point x="401" y="159"/>
      <point x="410" y="154"/>
      <point x="414" y="147" type="curve" smooth="yes"/>
      <point x="447" y="92"/>
      <point x="489" y="58"/>
      <point x="553" y="58" type="curve" smooth="yes"/>
      <point x="610" y="58"/>
      <point x="644" y="93"/>
      <point x="644" y="147" type="curve" smooth="yes"/>
      <point x="644" y="178"/>
      <point x="635" y="202"/>
      <point x="612" y="224" type="curve" smooth="yes"/>
      <point x="593" y="244"/>
      <point x="551" y="264"/>
      <point x="522" y="264" type="curve" smooth="yes"/>
      <point x="509" y="264"/>
      <point x="497" y="276"/>
      <point x="497" y="289" type="curve" smooth="yes"/>
      <point x="497" y="303"/>
      <point x="509" y="314"/>
      <point x="522" y="314" type="curve" smooth="yes"/>
      <point x="563" y="314"/>
      <point x="621" y="286"/>
      <point x="648" y="260" type="curve" smooth="yes"/>
      <point x="681" y="226"/>
      <point x="694" y="192"/>
      <point x="694" y="147" type="curve" smooth="yes"/>
      <point x="694" y="63"/>
      <point x="642" y="8"/>
      <point x="553" y="8" type="curve" smooth="yes"/>
      <point x="471" y="8"/>
      <point x="415" y="50"/>
      <point x="372" y="121" type="curve"/>
      <point x="393" y="109" type="line"/>
      <point x="388" y="109" type="line"/>
      <point x="410" y="123" type="line"/>
      <point x="374" y="50"/>
      <point x="319" y="8"/>
      <point x="238" y="8" type="curve" smooth="yes"/>
      <point x="146" y="8"/>
      <point x="77" y="76"/>
      <point x="77" y="184" type="curve" smooth="yes"/>
      <point x="77" y="284"/>
      <point x="142" y="370"/>
      <point x="223" y="370" type="curve" smooth="yes"/>
      <point x="289" y="370"/>
      <point x="335" y="325"/>
      <point x="335" y="266" type="curve" smooth="yes"/>
      <point x="335" y="205"/>
      <point x="295" y="162"/>
      <point x="225" y="162" type="curve" smooth="yes"/>
      <point x="179" y="162"/>
      <point x="131" y="183"/>
      <point x="100" y="230" type="curve" smooth="yes"/>
      <point x="93" y="241"/>
      <point x="96" y="257"/>
      <point x="107" y="265" type="curve" smooth="yes"/>
      <point x="118" y="272"/>
      <point x="134" y="269"/>
    </contour>
    <contour>
      <point x="231" y="475" type="curve" smooth="yes"/>
      <point x="195" y="467"/>
      <point x="174" y="446"/>
      <point x="173" y="423" type="curve" smooth="yes"/>
      <point x="172" y="403"/>
      <point x="182" y="379"/>
      <point x="221" y="369" type="curve" smooth="yes"/>
      <point x="234" y="366"/>
      <point x="242" y="352"/>
      <point x="239" y="339" type="curve" smooth="yes"/>
      <point x="236" y="326"/>
      <point x="222" y="318"/>
      <point x="209" y="321" type="curve" smooth="yes"/>
      <point x="134" y="339"/>
      <point x="122" y="389"/>
      <point x="123" y="425" type="curve" smooth="yes"/>
      <point x="124" y="464"/>
      <point x="153" y="509"/>
      <point x="221" y="523" type="curve" smooth="yes"/>
      <point x="234" y="526"/>
      <point x="248" y="517"/>
      <point x="250" y="504" type="curve" smooth="yes"/>
      <point x="253" y="491"/>
      <point x="244" y="477"/>
    </contour>
    <contour>
      <point x="522" y="313" type="curve" smooth="yes"/>
      <point x="608" y="348"/>
      <point x="650" y="404"/>
      <point x="650" y="479" type="curve" smooth="yes"/>
      <point x="650" y="535"/>
      <point x="611" y="596"/>
      <point x="553" y="596" type="curve" smooth="yes"/>
      <point x="513" y="596"/>
      <point x="487" y="569"/>
      <point x="487" y="536" type="curve" smooth="yes"/>
      <point x="487" y="504"/>
      <point x="514" y="480"/>
      <point x="547" y="480" type="curve" smooth="yes"/>
      <point x="586" y="480"/>
      <point x="614" y="499"/>
      <point x="645" y="539" type="curve" smooth="yes"/>
      <point x="653" y="550"/>
      <point x="670" y="552"/>
      <point x="680" y="544" type="curve" smooth="yes"/>
      <point x="691" y="536"/>
      <point x="693" y="519"/>
      <point x="685" y="509" type="curve" smooth="yes"/>
      <point x="642" y="453"/>
      <point x="600" y="430"/>
      <point x="547" y="430" type="curve" smooth="yes"/>
      <point x="484" y="430"/>
      <point x="437" y="476"/>
      <point x="437" y="536" type="curve" smooth="yes"/>
      <point x="437" y="593"/>
      <point x="481" y="646"/>
      <point x="553" y="646" type="curve" smooth="yes"/>
      <point x="635" y="646"/>
      <point x="700" y="565"/>
      <point x="700" y="479" type="curve" smooth="yes"/>
      <point x="700" y="386"/>
      <point x="650" y="312"/>
      <point x="540" y="267" type="curve" smooth="yes"/>
      <point x="528" y="262"/>
      <point x="513" y="268"/>
      <point x="508" y="281" type="curve" smooth="yes"/>
      <point x="503" y="293"/>
      <point x="509" y="308"/>
    </contour>
  </outline>
</glyph>
<glyph name="knVI" format="1">
  <advance width="731"/>
  <outline>
    <contour>
      <point x="193" y="201" type="curve" smooth="yes"/>
      <point x="146" y="195"/>
      <point x="118" y="165"/>
      <point x="118" y="128" type="curve" smooth="yes"/>
      <point x="118" y="87"/>
      <point x="154" y="58"/>
      <point x="204" y="58" type="curve" smooth="yes"/>
      <point x="270" y="58"/>
      <point x="307" y="86"/>
      <point x="339" y="146" type="curve" smooth="yes"/>
      <point x="343" y="153"/>
      <point x="353" y="159"/>
      <point x="361" y="159" type="curve" smooth="yes"/>
      <point x="366" y="159" type="line" smooth="yes"/>
      <point x="374" y="159"/>
      <point x="383" y="154"/>
      <point x="387" y="148" type="curve" smooth="yes"/>
      <point x="423" y="92"/>
      <point x="459" y="58"/>
      <point x="518" y="58" type="curve" smooth="yes"/>
      <point x="573" y="58"/>
      <point x="613" y="100"/>
      <point x="613" y="188" type="curve" smooth="yes"/>
      <point x="613" y="297"/>
      <point x="554" y="437"/>
      <point x="463" y="527" type="curve" smooth="yes"/>
      <point x="412" y="579"/>
      <point x="381" y="596"/>
      <point x="343" y="596" type="curve" smooth="yes"/>
      <point x="301" y="596"/>
      <point x="279" y="566"/>
      <point x="279" y="539" type="curve" smooth="yes"/>
      <point x="279" y="510"/>
      <point x="302" y="485"/>
      <point x="341" y="485" type="curve" smooth="yes"/>
      <point x="385" y="485"/>
      <point x="420" y="515"/>
      <point x="444" y="553" type="curve" smooth="yes"/>
      <point x="451" y="564"/>
      <point x="467" y="567"/>
      <point x="479" y="560" type="curve" smooth="yes"/>
      <point x="490" y="553"/>
      <point x="493" y="537"/>
      <point x="486" y="525" type="curve" smooth="yes"/>
      <point x="452" y="473"/>
      <point x="401" y="435"/>
      <point x="341" y="435" type="curve" smooth="yes"/>
      <point x="266" y="435"/>
      <point x="229" y="486"/>
      <point x="229" y="539" type="curve" smooth="yes"/>
      <point x="229" y="588"/>
      <point x="265" y="646"/>
      <point x="343" y="646" type="curve" smooth="yes"/>
      <point x="391" y="646"/>
      <point x="432" y="629"/>
      <point x="499" y="563" type="curve" smooth="yes"/>
      <point x="598" y="463"/>
      <point x="663" y="309"/>
      <point x="663" y="188" type="curve" smooth="yes"/>
      <point x="663" y="54"/>
      <point x="595" y="8"/>
      <point x="518" y="8" type="curve" smooth="yes"/>
      <point x="441" y="8"/>
      <point x="393" y="46"/>
      <point x="345" y="120" type="curve"/>
      <point x="366" y="109" type="line"/>
      <point x="361" y="109" type="line"/>
      <point x="383" y="122" type="line"/>
      <point x="341" y="44"/>
      <point x="290" y="8"/>
      <point x="204" y="8" type="curve" smooth="yes"/>
      <point x="118" y="8"/>
      <point x="68" y="63"/>
      <point x="68" y="128" type="curve" smooth="yes"/>
      <point x="68" y="187"/>
      <point x="108" y="239"/>
      <point x="185" y="251" type="curve" smooth="yes"/>
      <point x="199" y="253"/>
      <point x="212" y="243"/>
      <point x="214" y="230" type="curve" smooth="yes"/>
      <point x="216" y="216"/>
      <point x="206" y="203"/>
    </contour>
  </outline>
</glyph>
<glyph name="knYI" format="1">
  <advance width="1214"/>
  <outline>
    <contour>
      <point x="70" y="233" type="curve" smooth="yes"/>
      <point x="70" y="350"/>
      <point x="174" y="468"/>
      <point x="306" y="468" type="curve" smooth="yes"/>
      <point x="440" y="468"/>
      <point x="542" y="348"/>
      <point x="542" y="233" type="curve" smooth="yes"/>
      <point x="542" y="104"/>
      <point x="451" y="4"/>
      <point x="306" y="4" type="curve" smooth="yes"/>
      <point x="159" y="4"/>
      <point x="70" y="102"/>
    </contour>
    <contour>
      <point x="120" y="233" type="curve" smooth="yes"/>
      <point x="120" y="130"/>
      <point x="191" y="54"/>
      <point x="306" y="54" type="curve" smooth="yes"/>
      <point x="419" y="54"/>
      <point x="492" y="132"/>
      <point x="492" y="233" type="curve" smooth="yes"/>
      <point x="492" y="324"/>
      <point x="412" y="418"/>
      <point x="306" y="418" type="curve" smooth="yes"/>
      <point x="202" y="418"/>
      <point x="120" y="326"/>
    </contour>
    <contour>
      <point x="543" y="149" type="curve" smooth="yes"/>
      <point x="586" y="83"/>
      <point x="631" y="58"/>
      <point x="685" y="58" type="curve" smooth="yes"/>
      <point x="764" y="58"/>
      <point x="804" y="114"/>
      <point x="804" y="212" type="curve" smooth="yes"/>
      <point x="804" y="424"/>
      <point x="704" y="596"/>
      <point x="593" y="596" type="curve" smooth="yes"/>
      <point x="551" y="596"/>
      <point x="529" y="566"/>
      <point x="529" y="539" type="curve" smooth="yes"/>
      <point x="529" y="510"/>
      <point x="552" y="485"/>
      <point x="591" y="485" type="curve" smooth="yes"/>
      <point x="635" y="485"/>
      <point x="670" y="515"/>
      <point x="694" y="553" type="curve" smooth="yes"/>
      <point x="701" y="564"/>
      <point x="717" y="567"/>
      <point x="729" y="560" type="curve" smooth="yes"/>
      <point x="740" y="553"/>
      <point x="743" y="537"/>
      <point x="736" y="525" type="curve" smooth="yes"/>
      <point x="702" y="473"/>
      <point x="651" y="435"/>
      <point x="591" y="435" type="curve" smooth="yes"/>
      <point x="516" y="435"/>
      <point x="479" y="486"/>
      <point x="479" y="539" type="curve" smooth="yes"/>
      <point x="479" y="588"/>
      <point x="515" y="646"/>
      <point x="593" y="646" type="curve" smooth="yes"/>
      <point x="718" y="646"/>
      <point x="854" y="474"/>
      <point x="854" y="212" type="curve" smooth="yes"/>
      <point x="854" y="72"/>
      <point x="790" y="8"/>
      <point x="685" y="8" type="curve" smooth="yes"/>
      <point x="617" y="8"/>
      <point x="558" y="37"/>
      <point x="501" y="121" type="curve" smooth="yes"/>
      <point x="494" y="132"/>
      <point x="497" y="148"/>
      <point x="508" y="156" type="curve" smooth="yes"/>
      <point x="519" y="163"/>
      <point x="535" y="160"/>
    </contour>
    <contour>
      <point x="854" y="149" type="curve" smooth="yes"/>
      <point x="897" y="83"/>
      <point x="942" y="58"/>
      <point x="996" y="58" type="curve" smooth="yes"/>
      <point x="1072" y="58"/>
      <point x="1110" y="108"/>
      <point x="1110" y="179" type="curve" smooth="yes"/>
      <point x="1110" y="255"/>
      <point x="1066" y="344"/>
      <point x="1011" y="405" type="curve" smooth="yes"/>
      <point x="1001" y="415"/>
      <point x="1002" y="431"/>
      <point x="1012" y="440" type="curve" smooth="yes"/>
      <point x="1022" y="450"/>
      <point x="1038" y="449"/>
      <point x="1047" y="439" type="curve" smooth="yes"/>
      <point x="1112" y="368"/>
      <point x="1160" y="265"/>
      <point x="1160" y="179" type="curve" smooth="yes"/>
      <point x="1160" y="78"/>
      <point x="1104" y="8"/>
      <point x="996" y="8" type="curve" smooth="yes"/>
      <point x="928" y="8"/>
      <point x="869" y="37"/>
      <point x="812" y="121" type="curve" smooth="yes"/>
      <point x="805" y="132"/>
      <point x="808" y="148"/>
      <point x="819" y="156" type="curve" smooth="yes"/>
      <point x="830" y="163"/>
      <point x="846" y="160"/>
    </contour>
  </outline>
</glyph>
<glyph name="knYO" format="1">
  <advance width="1515"/>
  <outline>
    <contour>
      <point x="70" y="233" type="curve" smooth="yes"/>
      <point x="70" y="350"/>
      <point x="174" y="468"/>
      <point x="306" y="468" type="curve" smooth="yes"/>
      <point x="440" y="468"/>
      <point x="542" y="348"/>
      <point x="542" y="233" type="curve" smooth="yes"/>
      <point x="542" y="104"/>
      <point x="451" y="4"/>
      <point x="306" y="4" type="curve" smooth="yes"/>
      <point x="159" y="4"/>
      <point x="70" y="102"/>
    </contour>
    <contour>
      <point x="120" y="233" type="curve" smooth="yes"/>
      <point x="120" y="130"/>
      <point x="191" y="54"/>
      <point x="306" y="54" type="curve" smooth="yes"/>
      <point x="419" y="54"/>
      <point x="492" y="132"/>
      <point x="492" y="233" type="curve" smooth="yes"/>
      <point x="492" y="324"/>
      <point x="412" y="418"/>
      <point x="306" y="418" type="curve" smooth="yes"/>
      <point x="202" y="418"/>
      <point x="120" y="326"/>
    </contour>
    <contour>
      <point x="594" y="468" type="curve" smooth="yes"/>
      <point x="706" y="468" type="line" smooth="yes"/>
      <point x="720" y="468"/>
      <point x="731" y="457"/>
      <point x="731" y="443" type="curve" smooth="yes"/>
      <point x="731" y="430"/>
      <point x="720" y="418"/>
      <point x="706" y="418" type="curve" smooth="yes"/>
      <point x="594" y="418" type="line" smooth="yes"/>
      <point x="581" y="418"/>
      <point x="569" y="430"/>
      <point x="569" y="443" type="curve" smooth="yes"/>
      <point x="569" y="457"/>
      <point x="581" y="468"/>
    </contour>
    <contour>
      <point x="543" y="149" type="curve" smooth="yes"/>
      <point x="586" y="83"/>
      <point x="631" y="58"/>
      <point x="685" y="58" type="curve" smooth="yes"/>
      <point x="761" y="58"/>
      <point x="799" y="108"/>
      <point x="799" y="179" type="curve" smooth="yes"/>
      <point x="799" y="255"/>
      <point x="755" y="344"/>
      <point x="700" y="405" type="curve" smooth="yes"/>
      <point x="690" y="415"/>
      <point x="691" y="431"/>
      <point x="701" y="440" type="curve" smooth="yes"/>
      <point x="711" y="450"/>
      <point x="727" y="449"/>
      <point x="736" y="439" type="curve" smooth="yes"/>
      <point x="801" y="368"/>
      <point x="849" y="265"/>
      <point x="849" y="179" type="curve" smooth="yes"/>
      <point x="849" y="78"/>
      <point x="793" y="8"/>
      <point x="685" y="8" type="curve" smooth="yes"/>
      <point x="617" y="8"/>
      <point x="558" y="37"/>
      <point x="501" y="121" type="curve" smooth="yes"/>
      <point x="494" y="132"/>
      <point x="497" y="148"/>
      <point x="508" y="156" type="curve" smooth="yes"/>
      <point x="519" y="163"/>
      <point x="535" y="160"/>
    </contour>
    <component base="knsignUU" xOffset="908"/>
    <component base="knsignE" xOffset="903"/>
    <component base="knsignUU" xOffset="908"/>
    <component base="knsignE" xOffset="903"/>
  </outline>
</glyph>
<glyph name="threesuperior" format="1">
  <advance width="392"/>
  <outline>
    <contour>
      <point x="113" y="541" type="curve" smooth="yes"/>
      <point x="285" y="541" type="line" smooth="yes"/>
      <point x="297" y="541"/>
      <point x="308" y="530"/>
      <point x="308" y="518" type="curve" smooth="yes"/>
      <point x="308" y="506"/>
      <point x="297" y="495"/>
      <point x="285" y="495" type="curve" smooth="yes"/>
      <point x="113" y="495" type="line" smooth="yes"/>
      <point x="101" y="495"/>
      <point x="90" y="506"/>
      <point x="90" y="518" type="curve" smooth="yes"/>
      <point x="90" y="530"/>
      <point x="101" y="541"/>
    </contour>
    <contour>
      <point x="111" y="295" type="curve" smooth="yes"/>
      <point x="133" y="286"/>
      <point x="161" y="280"/>
      <point x="194" y="280" type="curve" smooth="yes"/>
      <point x="240" y="280"/>
      <point x="271" y="297"/>
      <point x="271" y="329" type="curve" smooth="yes"/>
      <point x="271" y="361"/>
      <point x="240" y="376"/>
      <point x="201" y="376" type="curve" smooth="yes"/>
      <point x="176" y="376"/>
      <point x="157" y="373"/>
      <point x="146" y="369" type="curve" smooth="yes"/>
      <point x="134" y="365"/>
      <point x="121" y="372"/>
      <point x="117" y="384" type="curve" smooth="yes"/>
      <point x="113" y="396"/>
      <point x="120" y="409"/>
      <point x="132" y="413" type="curve" smooth="yes"/>
      <point x="145" y="417"/>
      <point x="170" y="422"/>
      <point x="201" y="422" type="curve" smooth="yes"/>
      <point x="278" y="422"/>
      <point x="317" y="381"/>
      <point x="317" y="329" type="curve" smooth="yes"/>
      <point x="317" y="279"/>
      <point x="282" y="234"/>
      <point x="194" y="234" type="curve" smooth="yes"/>
      <point x="155" y="234"/>
      <point x="121" y="242"/>
      <point x="95" y="251" type="curve" smooth="yes"/>
      <point x="83" y="256"/>
      <point x="77" y="269"/>
      <point x="81" y="281" type="curve" smooth="yes"/>
      <point x="86" y="293"/>
      <point x="99" y="299"/>
    </contour>
    <contour>
      <point x="295" y="497" type="curve" smooth="yes"/>
      <point x="156" y="376" type="line" smooth="yes"/>
      <point x="147" y="367"/>
      <point x="132" y="369"/>
      <point x="124" y="378" type="curve" smooth="yes"/>
      <point x="115" y="387"/>
      <point x="117" y="402"/>
      <point x="126" y="410" type="curve" smooth="yes"/>
      <point x="265" y="531" type="line" smooth="yes"/>
      <point x="274" y="540"/>
      <point x="289" y="538"/>
      <point x="297" y="529" type="curve" smooth="yes"/>
      <point x="306" y="520"/>
      <point x="304" y="505"/>
    </contour>
  </outline>
</glyph>
<glyph name="tildecmb.cap" format="1">
  <advance width="0"/>
  <outline>
    <contour>
      <point x="-147" y="694" type="curve" smooth="yes"/>
      <point x="-117" y="731"/>
      <point x="-88" y="750"/>
      <point x="-59" y="750" type="curve" smooth="yes"/>
      <point x="-33" y="750"/>
      <point x="-10" y="737"/>
      <point x="15" y="718" type="curve" smooth="yes"/>
      <point x="30" y="707"/>
      <point x="43" y="697"/>
      <point x="58" y="697" type="curve" smooth="yes"/>
      <point x="80" y="697"/>
      <point x="94" y="714"/>
      <point x="113" y="739" type="curve" smooth="yes"/>
      <point x="121" y="750"/>
      <point x="137" y="752"/>
      <point x="148" y="744" type="curve" smooth="yes"/>
      <point x="159" y="736"/>
      <point x="161" y="720"/>
      <point x="153" y="709" type="curve" smooth="yes"/>
      <point x="120" y="666"/>
      <point x="92" y="647"/>
      <point x="58" y="647" type="curve" smooth="yes"/>
      <point x="33" y="647"/>
      <point x="10" y="659"/>
      <point x="-15" y="678" type="curve" smooth="yes"/>
      <point x="-30" y="689"/>
      <point x="-43" y="700"/>
      <point x="-59" y="700" type="curve" smooth="yes"/>
      <point x="-76" y="700"/>
      <point x="-91" y="683"/>
      <point x="-107" y="662" type="curve" smooth="yes"/>
      <point x="-116" y="652"/>
      <point x="-132" y="650"/>
      <point x="-143" y="658" type="curve" smooth="yes"/>
      <point x="-153" y="667"/>
      <point x="-155" y="683"/>
    </contour>
  </outline>
</glyph>
<glyph name="uni2206" format="1">
  <advance width="564"/>
  <outline>
    <contour>
      <point x="298" y="510" type="curve" smooth="yes"/>
      <point x="132" y="25" type="line" smooth="yes"/>
      <point x="127" y="12"/>
      <point x="113" y="5"/>
      <point x="100" y="9" type="curve" smooth="yes"/>
      <point x="87" y="14"/>
      <point x="80" y="28"/>
      <point x="84" y="41" type="curve" smooth="yes"/>
      <point x="250" y="526" type="line" smooth="yes"/>
      <point x="255" y="539"/>
      <point x="269" y="546"/>
      <point x="282" y="542" type="curve" smooth="yes"/>
      <point x="295" y="537"/>
      <point x="302" y="523"/>
    </contour>
    <contour>
      <point x="124" y="58" type="curve" smooth="yes"/>
      <point x="429" y="58" type="line" smooth="yes"/>
      <point x="443" y="58"/>
      <point x="454" y="47"/>
      <point x="454" y="33" type="curve" smooth="yes"/>
      <point x="454" y="20"/>
      <point x="443" y="8"/>
      <point x="429" y="8" type="curve" smooth="yes"/>
      <point x="124" y="8" type="line" smooth="yes"/>
      <point x="111" y="8"/>
      <point x="99" y="20"/>
      <point x="99" y="33" type="curve" smooth="yes"/>
      <point x="99" y="47"/>
      <point x="111" y="58"/>
    </contour>
    <contour>
      <point x="430" y="25" type="curve" smooth="yes"/>
      <point x="264" y="510" type="line" smooth="yes"/>
      <point x="260" y="523"/>
      <point x="267" y="537"/>
      <point x="280" y="542" type="curve" smooth="yes"/>
      <point x="293" y="546"/>
      <point x="307" y="539"/>
      <point x="312" y="526" type="curve" smooth="yes"/>
      <point x="478" y="41" type="line" smooth="yes"/>
      <point x="482" y="28"/>
      <point x="475" y="14"/>
      <point x="462" y="9" type="curve" smooth="yes"/>
      <point x="449" y="5"/>
      <point x="435" y="12"/>
    </contour>
  </outline>
</glyph>
